<?xml version="1.0" encoding="UTF-8"?>
<svg id="Layer_1" xmlns="http://www.w3.org/2000/svg" version="1.1" viewBox="0 0 500 500">
  <!-- Generator: Adobe Illustrator 29.6.1, SVG Export Plug-In . SVG Version: 2.1.1 Build 9)  -->
  <defs>
    <style>
      .st0 {
        fill: #e64900;
      }

      .st1 {
        fill: #ff5100;
      }

      .st2 {
        fill: #ff998c;
      }

      .st3 {
        fill: #d94500;
      }

      .st4 {
        fill: #fff;
      }

      .st5 {
        fill: #ed4b00;
      }

      .st6 {
        fill: #d1dded;
      }

      .st7 {
        fill: #ff6f2b;
      }

      .st8 {
        fill: #b53a00;
      }

      .st9 {
        fill: #e34700;
      }

      .st10 {
        fill: #755749;
      }

      .st11 {
        fill: #91a4bd;
      }

      .st12 {
        fill: #ad6847;
      }

      .st13 {
        opacity: .38;
      }

      .st14 {
        fill: #4f3a31;
      }
    </style>
  </defs>
  
  <g>
    <g>
      <g>
        <g>
          <polygon class="st7" points="203.28 282.11 53.66 236.07 60.9 232.81 224.35 265.24 203.28 282.11"/>
          <path class="st1" d="M392.16,220.51c-.03.18-.15.39-.35.63-6.89,8.16-110.04,49.95-131.16,61.52-13.41,7.33-117.38,57.28-122.23,50.2-.34-.5-.51-1.14-.53-1.93-.09-2.12.94-5.23,2.92-9.01.55-1.04,1.17-2.14,1.88-3.29.55-.9,1.14-1.83,1.78-2.78,12.37-18.51,40.89-45.85,74.29-55.13,9.12-2.54,18.59-3.73,28.21-3.03,24.99,1.82,136.84-40.95,144.75-37.84.34.14.49.36.43.66Z"/>
          <path class="st9" d="M392.16,220.51c-.03.18-.15.39-.35.63-6.89,8.16-110.04,49.95-131.16,61.52-13.41,7.33-117.38,57.28-122.23,50.2-.34-.5-.51-1.14-.53-1.93-.09-2.12.94-5.23,2.92-9.01.55-1.04,1.17-2.14,1.88-3.29.55-.9,1.14-1.83,1.78-2.78,5.07,1.51,12.45,2.81,20.01,1,13.57-3.26,94.17-52.1,96.34-53.46,2.17-1.36,102.31-33.65,102.31-33.65l28.6-9.89c.34.14.49.36.43.66Z"/>
          <path class="st8" d="M391.81,221.14c-6.89,8.16-110.04,49.95-131.16,61.52-13.41,7.33-117.38,57.28-122.23,50.2-.34-.5-.51-1.14-.53-1.93,2.89-.18,8.31-.58,9.76-.97,1.99-.54,113.98-57.35,115.25-57.89,1.13-.49,107.17-42.35,128.91-50.93Z"/>
          <path class="st7" d="M248.6,271.39l201.99,61.29-8.68,4.34-225.42-49.21c.23-3.93,18.18-11.43,32.11-16.42Z"/>
          <polygon class="st0" points="356.61 230.01 374.79 174.92 386.73 170.85 391.07 220.78 356.61 230.01"/>
          <path class="st14" d="M214.22,282.57c-3.76,4.01-11.54,10.04-20.43,16.12-.6.41-1.2.82-1.82,1.24h-.01c-15.04,10.13-32.59,19.97-39.07,20.27-.39.02-6.47-.65-10.2-1.56,1.12-1.83,2.42-3.78,3.9-5.81.24-.35.5-.68.75-1.02.25-.35.51-.69.78-1.04.52-.69,1.06-1.39,1.64-2.1.28-.36.56-.72.86-1.06,3.39-4.16,7.38-8.53,11.89-12.87.35-.34.69-.67,1.04-1,.37-.36.74-.71,1.12-1.05.37-.36.75-.71,1.14-1.05,2.68-2.45,5.51-4.87,8.49-7.24t.02-.01c.65-.52,1.31-1.04,1.98-1.55.59-.44,1.17-.89,1.76-1.32.04-.04.09-.08.14-.11.69-.52,1.41-1.03,2.12-1.55.64-.46,1.27-.9,1.92-1.36.14-.11.28-.21.42-.29,1.23-.85,2.49-1.68,3.76-2.51,1.11-.73,2.24-1.43,3.38-2.12.79-.48,1.58-.96,2.39-1.42.03-.02.05-.03.09-.04,1.66-.97,3.34-1.89,5.05-2.78.78-.41,1.57-.81,2.37-1.2.07-.03.13-.07.21-.1,1.47-.73,2.94-1.41,4.43-2.07.09-.04.16-.08.24-.11.4-.17.79-.35,1.19-.51.04-.02.09-.04.14-.07.64-.27,1.28-.54,1.93-.8.89-.36,1.79-.71,2.69-1.04.94-.36,1.9-.69,2.87-1.02.69-.24,1.41-.48,2.12-.69.02-.01.03-.01.04-.01.46-.15.92-.29,1.38-.42.62-.2,1.24-.37,1.86-.54,0,0,.89.86,1.26,1.58.36.73-2.54,16.79-5.8,20.27Z"/>
          <path class="st11" d="M218.76,260.72l-1.64,1.4-10.85,14.84s-5.96,5.88-16.52,14.09c-.56.43-1.14.88-1.74,1.34-2.38,1.81-4.97,3.73-7.76,5.71-.61.43-1.22.86-1.85,1.29-8.31,5.81-18.25,12.07-29.48,17.92-1.41.74-6.23,1.32-6.23,1.32,1.12-1.83,2.42-3.78,3.9-5.81.24-.35.5-.68.75-1.02.25-.35.51-.69.78-1.04.52-.69,1.06-1.39,1.64-2.1.28-.36.56-.72.86-1.06,3.39-4.16,7.38-8.53,11.89-12.87.35-.34.69-.67,1.04-1,.37-.36.74-.71,1.12-1.05.37-.36.75-.71,1.14-1.05,2.68-2.45,5.51-4.87,8.49-7.24t.02-.01c.56-.46,1.13-.89,1.7-1.34h.01c.09-.09.17-.15.26-.22,0,0,1.17-.89,1.76-1.32.04-.04.09-.08.14-.11.42-.31.86-.63,1.29-.96.27-.2.55-.39.82-.6.64-.46,1.27-.9,1.92-1.36.14-.11.28-.21.42-.29,1.23-.85,2.49-1.68,3.76-2.51,1.11-.73,2.24-1.43,3.38-2.12.79-.48,1.58-.96,2.39-1.42.03-.02.05-.03.09-.04,1.66-.97,3.34-1.89,5.05-2.78.78-.41,1.57-.81,2.37-1.2.07-.03.13-.07.21-.1,1.47-.73,2.94-1.42,4.43-2.07.09-.04.16-.08.24-.11.4-.17.79-.35,1.19-.51.04-.02.09-.04.14-.07.64-.27,1.28-.54,1.93-.8.89-.36,1.79-.71,2.69-1.04.94-.36,1.9-.69,2.87-1.02.69-.24,1.41-.48,2.12-.69.02-.01.03-.01.04-.01.46-.15.92-.29,1.38-.42.62-.2,1.24-.37,1.86-.54Z"/>
          <path class="st12" d="M201.3,281.51c3.23-2.84,4.96-4.55,4.96-4.55l9.78-13.36-3.89-.77c-.55.19-1.11.38-1.65.59-.9.34-1.8.68-2.69,1.04-.65.26-1.29.53-1.93.8-.05.02-.1.04-.14.07-.4.16-.79.34-1.19.51-.08.03-.15.07-.24.11-1.49.65-2.96,1.35-4.43,2.07-.08.03-.14.07-.21.1-.79.39-1.58.79-2.37,1.2-1.7.89-3.39,1.81-5.05,2.78-.03.01-.05.02-.09.04-.8.47-1.6.94-2.39,1.42-1.14.68-2.27,1.39-3.38,2.12-.43.28-.85.57-1.27.85l16.18,4.98Z"/>
          <path class="st10" d="M180.42,298.56c-.61.43-1.22.86-1.85,1.29-.5-1.18-1.12-2.77-1.47-3.77-1.89-5.51-2.25-9.81-1.1-13.05h.01c.09-.09.17-.15.26-.22,0,0,1.17-.89,1.76-1.32.24.02.49.04.73.1-.24.54-.42,1.16-.62,1.86-.03.1-.05.21-.09.31-.8,2.84-.6,6.73,1.18,11.81.22.64.77,2.01,1.18,2.99Z"/>
          <path class="st1" d="M194.02,299.23c-.6.41-1.2.82-1.82,1.24,0,0-2.87-5.96-4.19-8.09-2.82-4.58-5.72-7.19-8.43-8.36-.51-.22-.98-.42-1.42-.58-.74-.28-1.42-.46-2.13-.42.09-.08.17-.14.26-.21,0,0,1.17-.89,1.76-1.32.24.02.49.04.73.1.51.08,1.02.21,1.53.39,3.23,1.14,6.35,4.12,9.44,9.06,1.35,2.17,2.93,5.25,4.28,8.18Z"/>
          <polygon class="st3" points="441.91 337.02 456.74 316.31 460 315.49 450.59 332.68 441.91 337.02"/>
          <polygon class="st5" points="53.66 236.07 40 220.87 43.44 219.7 60.9 232.81 53.66 236.07"/>
          <polygon class="st7" points="374.79 174.92 427.98 181.7 434.49 178.99 386.73 170.85 374.79 174.92"/>
          <polygon class="st7" points="374.79 174.92 344.12 164.88 351.99 162.98 386.73 170.85 374.79 174.92"/>
          <g class="st13">
            <path class="st6" d="M212.96,263.48l-15.2,8.05s-1.23,4.42-3.37,7.86c4.12,1.36,9.81,2.93,13.8,4.44,2.39-2.22,3.43-5.16,3.96-7.1,2.2-8.16.81-13.25.81-13.25Z"/>
          </g>
          <g class="st13">
            <path class="st6" d="M185.19,288.99c1.89,2.3,3.47,4.88,4.79,7.69-7.91,5.91-17.86,11.72-30.12,17.46l-5.02-1.76c12.35-9.63,19.71-15.28,30.35-23.38Z"/>
          </g>
          <g class="st13">
            <path class="st6" d="M184.28,288.67l1.22,1.49s-7.96,6.2-11.4,8.55l-3.44,2.35-.09-.36,13.7-12.03Z"/>
          </g>
        </g>
        <g class="st13">
          <path class="st6" d="M198.37,271.68l14.59-8.2s.37,3,.23,4.59c-.14,1.59-15.11,4.77-15.11,4.77l.29-1.16Z"/>
        </g>
      </g>
      <path class="st2" d="M246.92,258.93c-.04.82-13.75,2.49-23.29,6.93-2.6,1.21-3.75-3.61,1.06-5.3,4.81-1.69,22.26-2.45,22.23-1.63Z"/>
    </g>
    <path class="st2" d="M143.72,319.93c-1.52.04-4.25,6.06-3.58,6.76.09.09,2.31-3.65,9.72-5.06,1.52-.29-5.19-1.72-6.14-1.7Z"/>
  </g>
</svg>