<?xml version="1.0" encoding="UTF-8"?>
<svg xmlns="http://www.w3.org/2000/svg" version="1.1" viewBox="0 0 595.28 578.64">
  <defs>
    <style>
      .wsk0 {
        fill: #9c3838;
      }

      .wsk1 {
        fill: #2c2828;
      }

      .wsk2 {
        fill: #858e99;
      }

      .wsk3 {
        fill: #bc3e3f;
      }

      .wsk4 {
        isolation: isolate;
      }

      .wsk5 {
        fill: #d55858;
      }

      .wsk6 {
        fill: #576573;
      }

      .wsk7 {
        mix-blend-mode: screen;
      }

      .wsk8 {
        mix-blend-mode: multiply;
      }

      .wsk9 {
        fill: #efe0e1;
      }

      .wsk10 {
        fill: #9ba2aa;
      }

      .wsk11 {
        fill: #e7ebec;
      }

      .wsk12 {
        fill: #707a86;
      }
    </style>
  </defs>
  <g class="wsk4">
    <g id="Capa_1">
      <g>
        <path class="wsk11" d="M196.24,74.56l2.31-7.42s70.34,15.71,117.07,21.86c46.74,6.14,214.64,33.48,223.53,34.71,8.89,1.23,13.21,12.6,13.21,18.74s-6.5,17.31-15.24,18.74c-93.98,15.36-338.57,52.55-338.57,52.55l-2.31-12.62v-126.56Z"/>
        <g>
          <path class="wsk5" d="M290.06,140.44c-.17-41.53-18.25-58.49-27.33-60.17h0c-33.97-6.38-64.18-13.13-64.18-13.13l-2.31,7.42v126.56l2.31,12.62s26.64-4.05,65.7-10.03c12.98-1.99,25.97-21.74,25.8-63.27Z"/>
          <path class="wsk5" d="M539.15,123.71c-3.34-.46-29.12-4.61-62.49-9.93h0c8.87,1.42,15.92,13.76,16.26,25.6.34,11.84-4.54,29.62-14.93,31.26h0c22.77-3.59,43.13-6.83,59.13-9.45,8.74-1.43,15.24-12.6,15.24-18.74s-4.32-17.51-13.21-18.74Z"/>
          <path class="wsk5" d="M414.18,140.44c0-21.75-9.92-38.13-18.7-39.5h0c-22.22-3.47-43.12-6.67-59.37-9.05h0c12.76,1.83,27.6,22.3,28.28,48.55.68,26.26-9.54,49.36-20.92,51.11h0c16.63-2.56,33.72-5.2,50.73-7.84h0c9.69-1.5,19.96-19.14,19.97-43.27Z"/>
        </g>
        <g class="wsk7">
          <path class="wsk1" d="M526.79,126.48c-12.7-2.46-74.17-11.67-134.12-20.28-46.02-6.6-150.41-21.53-196.43-28.11v31.88c102.04,6.96,311.29,21.29,326.99,22.78,20.83,1.96,16.26-3.81,3.56-6.26Z"/>
        </g>
        <g class="wsk8">
          <path class="wsk9" d="M468.55,156.53c-43.34,3.56-215.72,13.04-272.31,16.12v28.47l2.31,12.62s244.58-37.19,338.57-52.55c8.74-1.43,15.24-12.6,15.24-18.74,0-1.11-.15-2.39-.43-3.75h0c-1.47,14.82-31.31,13.56-83.38,17.83Z"/>
        </g>
        <g>
          <g>
            <path class="wsk3" d="M216.83,140.44c0,40.58-7.4,73.49-19.78,73.49-9.9,0-17.92-32.9-17.92-73.49s8.02-73.48,17.92-73.48c12.37,0,19.78,32.9,19.78,73.48Z"/>
            <path class="wsk0" d="M197.06,215.16c-10.62,0-18.93-32.82-18.93-74.72s8.32-74.71,18.93-74.71c14.36,0,21.92,37.52,21.92,74.71s-7.56,74.72-21.92,74.72ZM197.06,68.19c-8.16,0-16.9,29.03-16.9,72.26s8.74,72.26,16.9,72.26c10.87,0,18.76-30.39,18.76-72.26s-7.89-72.26-18.76-72.26Z"/>
          </g>
          <path class="wsk0" d="M190.17,209.42c-.26,0-.52-.13-.71-.39l-49.13-67.85c-.33-.46-.31-1.15.06-1.57l42.82-49.7c.37-.43.97-.42,1.33.03.36.45.35,1.17-.03,1.6l-42.18,48.95,48.54,67.03c.34.47.3,1.19-.09,1.6-.18.19-.4.28-.62.28Z"/>
          <path class="wsk0" d="M141.04,141.58c-.38,0-.73-.28-.88-.73-.18-.59.06-1.24.54-1.46l74.51-34.24c.48-.22,1.03.07,1.21.66.18.59-.06,1.24-.54,1.46l-74.51,34.24c-.11.05-.22.07-.33.07Z"/>
        </g>
        <g>
          <rect class="wsk0" x="126.57" y="137.33" width="15.61" height="6.22"/>
          <rect class="wsk2" x="119.72" y="132.75" width="6.67" height="406.81"/>
          <g>
            <rect class="wsk12" x="112.19" y="132.74" width="21.73" height="15.4"/>
            <rect class="wsk6" x="127.18" y="132.74" width="6.74" height="15.4"/>
            <rect class="wsk10" x="115.76" y="132.74" width="2.56" height="15.4"/>
          </g>
        </g>
        <path class="wsk0" d="M145.61,143.99c0,2.3-1.54,4.16-3.44,4.16h0c-1.9,0-3.44-1.86-3.44-4.16v-7.09c0-2.29,1.54-4.16,3.44-4.16h0c1.9,0,3.44,1.86,3.44,4.16v7.09Z"/>
      </g>
    </g>
  </g>
</svg>
