<?xml version="1.0" encoding="UTF-8"?>
<svg id="Capa_1" xmlns="http://www.w3.org/2000/svg" version="1.1" xmlns:xlink="http://www.w3.org/1999/xlink" viewBox="0 0 48.93 47.29">
  <!-- Generator: Adobe Illustrator 29.6.1, SVG Export Plug-In . SVG Version: 2.1.1 Build 9)  -->
  <defs>
    <style>
      .st0 {
        opacity: .25;
      }

      .st0, .st1, .st2, .st3, .st4, .st5 {
        fill-rule: evenodd;
      }

      .st0, .st3 {
        fill: #ff0;
      }

      .st1 {
        fill: url(#linear-gradient1);
      }

      .st2 {
        fill: #ffbf00;
        opacity: .5;
      }

      .st3 {
        opacity: .12;
      }

      .st4 {
        fill: url(#linear-gradient);
      }

      .st5 {
        fill: url(#linear-gradient2);
      }
    </style>
    <linearGradient id="linear-gradient" x1="-270" y1="251.96" x2="-269.01" y2="251.96" gradientTransform="translate(8307.58 6205.59) rotate(79.77) scale(28.02 27.99) skewX(.02)" gradientUnits="userSpaceOnUse">
      <stop offset="0" stop-color="#ffbf00"/>
      <stop offset="1" stop-color="#ff8000"/>
    </linearGradient>
    <linearGradient id="linear-gradient1" x1="-268.19" y1="253.25" x2="-267.19" y2="253.25" gradientTransform="translate(5607.1 4133.51) rotate(79.77) scale(18.8)" xlink:href="#linear-gradient"/>
    <linearGradient id="linear-gradient2" x1="-276.77" y1="251.19" x2="-275.77" y2="251.19" gradientTransform="translate(3187.89 -12937.52) rotate(-34.02) scale(35.72)" gradientUnits="userSpaceOnUse">
      <stop offset="0" stop-color="#ff0"/>
      <stop offset="1" stop-color="#ff8000"/>
    </linearGradient>
  </defs>
  <polygon class="st2" points="10.55 27.62 16.54 27.35 12.06 31.35 17.79 29.59 14.45 34.57 19.57 31.45 17.58 37.1 21.76 32.81 21.23 38.78 24.21 33.58 25.18 39.49 26.78 33.71 29.19 39.2 29.29 33.21 33 37.92 31.61 32.09 36.37 35.74 33.57 30.43 39.09 32.78 35.06 28.34 40.99 29.24 35.99 25.94 41.95 25.34 36.29 23.39 41.91 21.32 35.94 20.84 40.88 17.44 34.97 18.46 38.91 13.94 33.44 16.4 36.13 11.04 31.44 14.78 32.72 8.92 29.11 13.71 28.88 7.71 26.58 13.25 24.87 7.5 24.01 13.43 20.93 8.29 21.58 14.25 17.31 10.04 19.42 15.65 14.24 12.63 17.68 17.54 11.91 15.9 16.46 19.81 10.47 19.65 15.85 22.3 10 23.64 15.87 24.87 10.55 27.62"/>
  <polygon class="st4" points="9.02 30.44 15.8 29.27 11.28 34.46 17.55 31.64 14.47 37.79 19.85 33.49 18.39 40.22 22.53 34.72 22.79 41.6 25.43 35.24 27.4 41.84 28.37 35.03 31.92 40.93 31.17 34.09 36.07 38.92 33.64 32.48 39.59 35.94 35.64 30.31 42.26 32.19 37.03 27.71 43.91 27.88 37.74 24.85 44.44 23.3 37.71 21.9 43.82 18.73 36.94 19.05 42.07 14.46 35.49 16.48 39.32 10.76 33.45 14.35 35.74 7.86 30.95 12.79 31.55 5.94 28.13 11.91 27.01 5.12 25.19 11.76 22.41 5.46 22.29 12.34 18.04 6.93 19.64 13.63 14.17 9.44 17.39 15.53 11.05 12.84 15.68 17.93 8.87 16.9 14.62 20.69 7.78 21.38 14.28 23.62 7.82 25.99 14.68 26.54 9.02 30.44"/>
  <path class="st1" d="M13.7,24.16c-.59-6.77,4.42-12.75,11.2-13.34,6.77-.59,12.75,4.42,13.34,11.2.59,6.77-4.42,12.75-11.2,13.34-6.77.59-12.75-4.42-13.34-11.2Z"/>
  <path class="st3" d="M13.69,24.16c-.59-6.77,4.42-12.75,11.2-13.34,6.77-.59,12.75,4.43,13.34,11.2,1.08,7.86-23.32,10.32-24.54,2.15Z"/>
  <path class="st0" d="M15.69,21.38c-1.67-2.65-.09-6.45,3.51-8.47,3.61-2.02,7.89-1.52,9.56,1.14,1.67,2.65.09,6.45-3.51,8.48-3.61,2.02-7.89,1.52-9.56-1.14Z"/>
  <path class="st5" d="M25.78,35.14c.41,0,.82,0,1.23-.04,6.63-.58,11.53-6.43,10.95-13.06-.58-6.63-6.43-11.53-13.05-10.95-6.63.58-11.53,6.43-10.95,13.05.54,6.21,5.72,10.91,11.82,11ZM25.77,35.67c-6.38-.09-11.78-5-12.35-11.49-.6-6.92,4.52-13.03,11.44-13.63,6.92-.61,13.03,4.52,13.63,11.44.6,6.92-4.52,13.03-11.44,13.63-.43.04-.86.05-1.29.05Z"/>
</svg>