<?xml version="1.0" encoding="UTF-8"?>
<svg id="Capa_2" xmlns="http://www.w3.org/2000/svg" version="1.1" xmlns:xlink="http://www.w3.org/1999/xlink" viewBox="0 0 64.7 57.96">
  <!-- Generator: Adobe Illustrator 29.6.1, SVG Export Plug-In . SVG Version: 2.1.1 Build 9)  -->
  <defs>
    <style>
      .st0 {
        fill: url(#linear-gradient9);
      }

      .st0, .st1, .st2, .st3, .st4, .st5, .st6, .st7, .st8, .st9, .st10, .st11, .st12, .st13, .st14, .st15, .st16, .st17 {
        fill-rule: evenodd;
      }

      .st1 {
        fill: url(#linear-gradient10);
      }

      .st2 {
        opacity: .25;
      }

      .st2, .st8 {
        fill: #ff0;
      }

      .st3 {
        fill: url(#linear-gradient6);
      }

      .st4 {
        fill: url(#linear-gradient8);
      }

      .st5 {
        fill: url(#linear-gradient5);
      }

      .st6 {
        fill: url(#linear-gradient1);
      }

      .st7 {
        fill: #ffbf00;
        opacity: .5;
      }

      .st8 {
        opacity: .12;
      }

      .st9 {
        fill: url(#linear-gradient11);
      }

      .st10 {
        fill: url(#linear-gradient7);
      }

      .st18 {
        display: none;
      }

      .st11 {
        fill: url(#linear-gradient4);
      }

      .st12 {
        fill: url(#linear-gradient12);
      }

      .st13 {
        fill: #fff;
        opacity: .35;
      }

      .st14 {
        fill: url(#linear-gradient3);
      }

      .st15 {
        fill: url(#linear-gradient);
      }

      .st16 {
        fill: #d59701;
      }

      .st17 {
        fill: url(#linear-gradient2);
      }
    </style>
    <linearGradient id="linear-gradient" x1="-262.62" y1="256.23" x2="-261.62" y2="256.23" gradientTransform="translate(8395.8 5984.81) rotate(79.77) scale(28.02 27.99) skewX(.02)" gradientUnits="userSpaceOnUse">
      <stop offset="0" stop-color="#ffbf00"/>
      <stop offset="1" stop-color="#ff8000"/>
    </linearGradient>
    <linearGradient id="linear-gradient1" x1="-260.81" y1="257.52" x2="-259.81" y2="257.52" gradientTransform="translate(5668.8 3986.79) rotate(79.77) scale(18.8)" xlink:href="#linear-gradient"/>
    <linearGradient id="linear-gradient2" x1="-269.38" y1="255.46" x2="-268.38" y2="255.46" gradientTransform="translate(2891.18 -12911.96) rotate(-34.02) scale(35.72)" gradientUnits="userSpaceOnUse">
      <stop offset="0" stop-color="#ff0"/>
      <stop offset="1" stop-color="#ff8000"/>
    </linearGradient>
    <linearGradient id="linear-gradient3" x1="-263.07" y1="258.3" x2="-262.07" y2="258.3" gradientTransform="translate(8448.57 5984.81) rotate(79.78) scale(28.02 27.99) skewX(.03)" xlink:href="#linear-gradient"/>
    <linearGradient id="linear-gradient4" x1="-261.47" y1="260.61" x2="-260.47" y2="260.61" gradientTransform="translate(5722.11 3986.79) rotate(79.77) scale(18.8)" xlink:href="#linear-gradient"/>
    <linearGradient id="linear-gradient5" x1="-270.72" y1="254.48" x2="-269.72" y2="254.48" gradientTransform="translate(2944.75 -12912.21) rotate(-34.02) scale(35.72)" xlink:href="#linear-gradient2"/>
    <linearGradient id="linear-gradient6" x1="-262.61" y1="257.24" x2="-261.61" y2="257.24" gradientTransform="translate(7902.59 8057.96) rotate(90) scale(30.58)" gradientUnits="userSpaceOnUse">
      <stop offset="0" stop-color="#fff"/>
      <stop offset="1" stop-color="#86a4aa"/>
    </linearGradient>
    <linearGradient id="linear-gradient7" x1="-261.73" y1="257.51" x2="-260.73" y2="257.51" gradientTransform="translate(6370.52 6974.52) rotate(92.22) scale(25.63)" gradientUnits="userSpaceOnUse">
      <stop offset="0" stop-color="#86a4aa"/>
      <stop offset="1" stop-color="#fff"/>
    </linearGradient>
    <linearGradient id="linear-gradient8" x1="-263.07" y1="258.3" x2="-262.07" y2="258.3" gradientTransform="translate(8448.57 5984.81) rotate(79.78) scale(28.02 27.99) skewX(.03)" xlink:href="#linear-gradient"/>
    <linearGradient id="linear-gradient9" x1="-261.47" y1="260.61" x2="-260.47" y2="260.61" gradientTransform="translate(5722.11 3986.79) rotate(79.77) scale(18.8)" xlink:href="#linear-gradient"/>
    <linearGradient id="linear-gradient10" x1="-270.72" y1="254.48" x2="-269.72" y2="254.48" gradientTransform="translate(2944.75 -12912.21) rotate(-34.02) scale(35.72)" xlink:href="#linear-gradient2"/>
    <linearGradient id="linear-gradient11" x1="-262.73" y1="259.06" x2="-261.73" y2="259.06" gradientTransform="translate(8059.62 8158.62) rotate(90) scale(30.98)" xlink:href="#linear-gradient6"/>
    <linearGradient id="linear-gradient12" x1="-261.79" y1="259.68" x2="-260.79" y2="259.68" gradientTransform="translate(6507.55 7060.51) rotate(92.22) scale(25.96)" xlink:href="#linear-gradient7"/>
  </defs>
  <g id="Capa_1" class="st18">
    <polygon class="st7" points="17.93 31.89 23.92 31.62 19.45 35.62 25.18 33.86 21.84 38.84 26.96 35.72 24.96 41.37 29.14 37.08 28.62 43.05 31.6 37.85 32.57 43.76 34.16 37.98 36.58 43.47 36.68 37.48 40.39 42.19 39 36.36 43.76 40.01 40.96 34.7 46.48 37.05 42.45 32.61 48.38 33.51 43.38 30.21 49.34 29.61 43.67 27.66 49.3 25.59 43.33 25.11 48.27 21.71 42.36 22.73 46.3 18.21 40.83 20.67 43.52 15.31 38.83 19.05 40.1 13.19 36.5 17.98 36.27 11.98 33.97 17.52 32.26 11.77 31.4 17.7 28.32 12.56 28.97 18.52 24.7 14.31 26.81 19.92 21.63 16.9 25.07 21.81 19.3 20.17 23.85 24.08 17.86 23.92 23.24 26.57 17.39 27.91 23.26 29.14 17.93 31.89"/>
    <polygon class="st15" points="16.41 34.71 23.19 33.54 18.67 38.73 24.94 35.91 21.86 42.06 27.24 37.76 25.78 44.49 29.92 38.99 30.18 45.87 32.82 39.51 34.78 46.11 35.76 39.3 39.3 45.19 38.56 38.36 43.46 43.19 41.03 36.75 46.98 40.21 43.03 34.58 49.65 36.46 44.42 31.98 51.3 32.15 45.13 29.12 51.83 27.57 45.09 26.17 51.2 23 44.33 23.32 49.46 18.73 42.88 20.75 46.71 15.03 40.84 18.62 43.13 12.13 38.34 17.06 38.94 10.21 35.52 16.18 34.4 9.39 32.57 16.03 29.8 9.73 29.68 16.61 25.43 11.2 27.03 17.89 21.56 13.71 24.78 19.8 18.44 17.11 23.07 22.2 16.26 21.17 22.01 24.96 15.16 25.65 21.67 27.89 15.21 30.26 22.07 30.81 16.41 34.71"/>
    <path class="st6" d="M21.08,28.43c-.59-6.77,4.42-12.75,11.2-13.34,6.77-.59,12.75,4.42,13.34,11.2.59,6.77-4.42,12.75-11.2,13.34-6.77.59-12.75-4.42-13.34-11.2Z"/>
    <path class="st8" d="M21.08,28.43c-.59-6.77,4.42-12.75,11.2-13.34,6.77-.59,12.75,4.43,13.34,11.2,1.08,7.86-23.32,10.32-24.54,2.15Z"/>
    <path class="st2" d="M23.08,25.65c-1.67-2.65-.09-6.45,3.51-8.47,3.61-2.02,7.89-1.52,9.56,1.14,1.67,2.65.09,6.45-3.51,8.48-3.61,2.02-7.89,1.52-9.56-1.14Z"/>
    <path class="st17" d="M33.17,39.41c.41,0,.82,0,1.23-.04,6.63-.58,11.53-6.43,10.95-13.06-.58-6.63-6.43-11.53-13.05-10.95-6.63.58-11.53,6.43-10.95,13.05.54,6.21,5.72,10.91,11.82,11ZM33.16,39.94c-6.38-.09-11.78-5-12.35-11.49-.6-6.92,4.52-13.03,11.44-13.63,6.92-.61,13.03,4.52,13.63,11.44.6,6.92-4.52,13.03-11.44,13.63-.43.04-.86.05-1.29.05Z"/>
    <polygon class="st7" points="11.93 29.81 17.92 29.54 13.44 33.53 19.18 31.78 15.84 36.76 20.95 33.64 18.96 39.29 23.14 34.99 22.61 40.96 25.59 35.76 26.56 41.68 28.16 35.9 30.57 41.39 30.68 35.39 34.38 40.11 32.99 34.28 37.75 37.92 34.95 32.62 40.47 34.97 36.45 30.53 42.37 31.43 37.37 28.13 43.33 27.53 37.67 25.57 43.3 23.51 37.32 23.03 42.26 19.63 36.35 20.65 40.29 16.13 34.82 18.58 37.51 13.22 32.82 16.96 34.1 11.1 30.49 15.89 30.26 9.9 27.96 15.43 26.25 9.69 25.39 15.62 22.31 10.48 22.96 16.44 18.69 12.22 20.8 17.84 15.62 14.81 19.06 19.73 13.29 18.09 17.84 21.99 11.85 21.84 17.23 24.49 11.39 25.83 17.25 27.06 11.93 29.81"/>
    <polygon class="st14" points="10.4 32.63 17.18 31.46 12.66 36.65 18.94 33.82 15.85 39.97 21.23 35.68 19.77 42.4 23.91 36.91 24.17 43.78 26.81 37.43 28.78 44.02 29.75 37.21 33.3 43.11 32.55 36.27 37.45 41.11 35.02 34.67 40.97 38.13 37.02 32.5 43.64 34.37 38.41 29.9 45.29 30.07 39.12 27.03 45.82 25.49 39.09 24.08 45.2 20.92 38.32 21.23 43.45 16.65 36.88 18.66 40.71 12.95 34.83 16.54 37.12 10.05 32.33 14.98 32.93 8.13 29.51 14.1 28.39 7.31 26.57 13.94 23.79 7.65 23.68 14.53 19.42 9.12 21.02 15.81 15.56 11.63 18.77 17.71 12.44 15.02 17.06 20.12 10.26 19.09 16 22.87 9.16 23.57 15.66 25.8 9.21 28.18 16.06 28.72 10.4 32.63"/>
    <path class="st11" d="M15.08,26.35c-.59-6.77,4.42-12.75,11.2-13.34,6.77-.59,12.75,4.42,13.34,11.2.59,6.77-4.42,12.75-11.2,13.34-6.77.59-12.75-4.42-13.34-11.2Z"/>
    <path class="st8" d="M15.07,26.35c-.59-6.77,4.42-12.75,11.2-13.34,6.77-.59,12.75,4.43,13.34,11.2,1.08,7.86-23.33,10.32-24.54,2.15Z"/>
    <path class="st2" d="M17.07,23.57c-1.67-2.65-.09-6.45,3.51-8.47,3.61-2.02,7.89-1.52,9.56,1.14,1.67,2.65.09,6.45-3.52,8.48-3.61,2.02-7.89,1.52-9.56-1.14Z"/>
    <path class="st5" d="M27.16,37.32c.41,0,.82,0,1.23-.04,6.62-.58,11.53-6.43,10.95-13.06-.58-6.63-6.43-11.53-13.05-10.95-6.63.58-11.53,6.43-10.95,13.05.54,6.21,5.72,10.91,11.82,11ZM27.15,37.86c-6.38-.09-11.78-5-12.35-11.49-.61-6.92,4.52-13.03,11.44-13.63,6.92-.61,13.03,4.52,13.63,11.44.6,6.92-4.52,13.03-11.44,13.63-.43.04-.86.05-1.29.05Z"/>
    <path class="st16" d="M29.09,45.52c-3.16,0-5.93-1.64-7.46-4.11l-.49-.93-.69.19h-.02c-.31.06-.63.09-.96.09-2.8,0-5.09-2.23-5.09-4.98,0-2.58,2.01-4.7,4.57-4.96l.43-.02h0s.03,0,.03,0h.06s.8.08.8.08l.03-.16c.43-2.07,2.29-3.62,4.52-3.62h.04s.05,0,.05,0c.63,0,1.24.13,1.79.35h0s.06-.09.06-.09c1.33-1.93,3.58-3.2,6.12-3.2h.04s.05,0,.05,0c2.8,0,5.24,1.53,6.49,3.78l.13.26h.06c.19-.03.39-.04.58-.04h.04s.04,0,.04,0l2.43,12.65-.33.63c-1.05,1.69-2.95,2.82-5.11,2.82-.77,0-1.51-.14-2.19-.41l-.55-.25-1.15.78c-1.28.72-2.76,1.13-4.34,1.13Z"/>
    <path class="st3" d="M30.61,47.94c-3.92,0-7.28-2.33-8.72-5.66h0s-.95.26-.95.26c-.33.06-.68.1-1.03.1-2.99,0-5.42-2.38-5.42-5.31s2.43-5.3,5.42-5.3c.37,0,.74.04,1.09.11l.1.02.07-.43c.46-2.18,2.43-3.82,4.79-3.82.67,0,1.32.13,1.9.38l.26.14.21-.34c1.43-2.07,3.86-3.44,6.61-3.44,3.02,0,5.66,1.65,7.01,4.08l.22.46.33-.05c.21-.02.41-.03.62-.03,2.11,0,3.96,1.05,5.06,2.64l.05.07.27-.1c.46-.14.95-.22,1.45-.22,1.68,0,3.17.84,4.05,2.11l.42.75.23-.07c.16-.03.32-.05.49-.05,1.35,0,2.44,1.07,2.44,2.39s-1.09,2.39-2.44,2.39c-.34,0-.66-.07-.95-.19l-.1-.05-.09.17c-.35.51-.8.95-1.32,1.29l-.76.4-.16.29c-.88,1.27-2.37,2.11-4.05,2.11-.67,0-1.32-.13-1.9-.38l-.1-.05-.03.08c-.98,2.25-3.25,3.83-5.91,3.83-1.11,0-2.15-.27-3.06-.76l-.03-.02-.06.06c-1.64,1.32-3.73,2.12-6.02,2.12Z"/>
    <path class="st10" d="M30.61,47.69c1.67,0,3.24-.43,4.59-1.2l1.27-.86.05-.05.31-.03c.87.48,1.87.74,2.94.74,2.23,0,4.19-1.17,5.27-2.9l.41-.78.03-.07.35-.13.08.05.87.26c.3.06.62.09.94.09,1.2,0,2.29-.45,3.12-1.18l.72-.82.16-.28.1-.1.74-.4.68-.55.56-.67.09-.16.33-.1.08.04.41.12c.14.03.29.04.45.04,1.21,0,2.19-.97,2.19-2.14s-.98-2.14-2.19-2.14l-.44.04-.21.07-.29-.12-.41-.73-.72-.82c-.82-.73-1.92-1.18-3.12-1.18-.24,0-.48.02-.71.05l-.67.15-.25.09-.29-.1-.04-.06-.43-.54c-1.07-1.22-2.66-1.99-4.43-1.99-.2,0-.4.01-.6.03l-.32.05-.26-.14-.22-.45-.54-.84c-1.41-1.89-3.68-3.11-6.24-3.11-2.33,0-4.43,1.01-5.84,2.62l-.57.72-.21.33-.33.09-.25-.13-.87-.26c-.3-.06-.61-.09-.93-.09-1.96,0-3.64,1.19-4.32,2.87l-.23.75-.07.42-.31.2-.09-.02-1.04-.1c-2.86,0-5.17,2.27-5.17,5.06s2.31,5.06,5.17,5.06l.97-.09.94-.27.3.15c1.4,3.23,4.67,5.51,8.49,5.51ZM30.61,48.19c-3.52,0-6.6-1.83-8.31-4.58l-.54-1.04-.76.22h-.02c-.35.07-.71.1-1.07.1-3.12,0-5.67-2.48-5.67-5.55s2.54-5.55,5.67-5.55l.99.1.03-.18c.48-2.31,2.56-4.03,5.03-4.03.71,0,1.38.14,2,.4h.02s.06.04.06.04l.09-.15c1.48-2.15,3.98-3.56,6.82-3.56,3.12,0,5.83,1.7,7.23,4.21l.15.3.16-.02c.22-.02.43-.03.65-.03,1.92,0,3.64.83,4.8,2.15l.4.51.1-.03c.49-.15,1-.23,1.53-.23,1.77,0,3.33.88,4.25,2.22v.02s.33.58.33.58h.06c.17-.05.35-.07.54-.07,1.48,0,2.69,1.18,2.69,2.64s-1.21,2.64-2.69,2.64c-.19,0-.37-.02-.54-.05l-.39-.12-.63.74c-.23.23-.49.43-.76.61h-.02s-.69.38-.69.38l-.13.23v.02c-.94,1.34-2.5,2.21-4.27,2.21-.35,0-.7-.03-1.03-.1l-.85-.26-.37.7c-1.17,1.88-3.28,3.14-5.69,3.14-.86,0-1.68-.16-2.44-.45l-.62-.28-1.28.87c-1.42.8-3.07,1.26-4.83,1.26Z"/>
    <path class="st13" d="M19.81,31.78l.99.1.03-.18c.48-2.31,2.55-4.03,5.03-4.03.71,0,1.38.14,2,.4h.02s.06.04.06.04l.1-.15c1.48-2.15,3.98-3.56,6.82-3.56,3.12,0,5.83,1.7,7.23,4.21l.15.3.16-.02c.22-.02.43-.03.65-.03,1.92,0,3.64.83,4.8,2.15l.4.51.1-.03c.49-.15,1-.23,1.53-.23,1.77,0,3.33.88,4.25,2.22v.02s.33.58.33.58h.06c.17-.05.36-.07.54-.07,1.48,5.37-38.36,5.14-35.24-2.22Z"/>
  </g>
  <g id="Capa_3" class="st18">
    <polygon class="st7" points="11.93 29.81 17.92 29.54 13.44 33.53 19.18 31.78 15.84 36.76 20.95 33.64 18.96 39.29 23.14 34.99 22.61 40.96 25.59 35.76 26.56 41.68 28.16 35.9 30.57 41.39 30.68 35.39 34.38 40.11 32.99 34.28 37.75 37.92 34.95 32.62 40.47 34.97 36.45 30.53 42.37 31.43 37.37 28.13 43.33 27.53 37.67 25.57 43.3 23.51 37.32 23.03 42.26 19.63 36.35 20.65 40.29 16.13 34.82 18.58 37.51 13.22 32.82 16.96 34.1 11.1 30.49 15.89 30.26 9.9 27.96 15.43 26.25 9.69 25.39 15.62 22.31 10.48 22.96 16.44 18.69 12.22 20.8 17.84 15.62 14.81 19.06 19.73 13.29 18.09 17.84 21.99 11.85 21.84 17.23 24.49 11.39 25.83 17.25 27.06 11.93 29.81"/>
    <polygon class="st4" points="10.4 32.63 17.18 31.46 12.66 36.65 18.94 33.82 15.85 39.97 21.23 35.68 19.77 42.4 23.91 36.91 24.17 43.78 26.81 37.43 28.78 44.02 29.75 37.21 33.3 43.11 32.55 36.27 37.45 41.11 35.02 34.67 40.97 38.13 37.02 32.5 43.64 34.37 38.41 29.9 45.29 30.07 39.12 27.03 45.82 25.49 39.09 24.08 45.2 20.92 38.32 21.23 43.45 16.65 36.88 18.66 40.71 12.95 34.83 16.54 37.12 10.05 32.33 14.98 32.93 8.13 29.51 14.1 28.39 7.31 26.57 13.94 23.79 7.65 23.68 14.53 19.42 9.12 21.02 15.81 15.56 11.63 18.77 17.71 12.44 15.02 17.06 20.12 10.26 19.09 16 22.87 9.16 23.57 15.66 25.8 9.21 28.18 16.06 28.72 10.4 32.63"/>
    <path class="st0" d="M15.08,26.35c-.59-6.77,4.42-12.75,11.2-13.34,6.77-.59,12.75,4.42,13.34,11.2.59,6.77-4.42,12.75-11.2,13.34-6.77.59-12.75-4.42-13.34-11.2Z"/>
    <path class="st8" d="M15.07,26.35c-.59-6.77,4.42-12.75,11.2-13.34,6.77-.59,12.75,4.43,13.34,11.2,1.08,7.86-23.33,10.32-24.54,2.15Z"/>
    <path class="st2" d="M17.07,23.57c-1.67-2.65-.09-6.45,3.51-8.47,3.61-2.02,7.89-1.52,9.56,1.14,1.67,2.65.09,6.45-3.52,8.48-3.61,2.02-7.89,1.52-9.56-1.14Z"/>
    <path class="st1" d="M27.16,37.32c.41,0,.82,0,1.23-.04,6.62-.58,11.53-6.43,10.95-13.06-.58-6.63-6.43-11.53-13.05-10.95-6.63.58-11.53,6.43-10.95,13.05.54,6.21,5.72,10.91,11.82,11ZM27.15,37.86c-6.38-.09-11.78-5-12.35-11.49-.61-6.92,4.52-13.03,11.44-13.63,6.92-.61,13.03,4.52,13.63,11.44.6,6.92-4.52,13.03-11.44,13.63-.43.04-.86.05-1.29.05Z"/>
    <path class="st16" d="M29.09,45.52c-3.16,0-5.93-1.64-7.46-4.11l-.49-.93-.69.19h-.02c-.31.06-.63.09-.96.09-2.8,0-5.09-2.23-5.09-4.98,0-2.58,2.01-4.7,4.57-4.96l.43-.02h0s.03,0,.03,0h.06s.8.08.8.08l.03-.16c.43-2.07,2.29-3.62,4.52-3.62h.04s.05,0,.05,0c.63,0,1.24.13,1.79.35h0s.06-.09.06-.09c1.33-1.93,3.58-3.2,6.12-3.2h.04s.05,0,.05,0c2.8,0,5.24,1.53,6.49,3.78l.13.26h.06c.19-.03.39-.04.58-.04h.04s.04,0,.04,0l2.43,12.65-.33.63c-1.05,1.69-2.95,2.82-5.11,2.82-.77,0-1.51-.14-2.19-.41l-.55-.25-1.15.78c-1.28.72-2.76,1.13-4.34,1.13Z"/>
    <path class="st3" d="M30.61,47.94c-3.92,0-7.28-2.33-8.72-5.66h0s-.95.26-.95.26c-.33.06-.68.1-1.03.1-2.99,0-5.42-2.38-5.42-5.31s2.43-5.3,5.42-5.3c.37,0,.74.04,1.09.11l.1.02.07-.43c.46-2.18,2.43-3.82,4.79-3.82.67,0,1.32.13,1.9.38l.26.14.21-.34c1.43-2.07,3.86-3.44,6.61-3.44,3.02,0,5.66,1.65,7.01,4.08l.22.46.33-.05c.21-.02.41-.03.62-.03,2.11,0,3.96,1.05,5.06,2.64l.05.07.27-.1c.46-.14.95-.22,1.45-.22,1.68,0,3.17.84,4.05,2.11l.42.75.23-.07c.16-.03.32-.05.49-.05,1.35,0,2.44,1.07,2.44,2.39s-1.09,2.39-2.44,2.39c-.34,0-.66-.07-.95-.19l-.1-.05-.09.17c-.35.51-.8.95-1.32,1.29l-.76.4-.16.29c-.88,1.27-2.37,2.11-4.05,2.11-.67,0-1.32-.13-1.9-.38l-.1-.05-.03.08c-.98,2.25-3.25,3.83-5.91,3.83-1.11,0-2.15-.27-3.06-.76l-.03-.02-.06.06c-1.64,1.32-3.73,2.12-6.02,2.12Z"/>
    <path class="st10" d="M30.61,47.69c1.67,0,3.24-.43,4.59-1.2l1.27-.86.05-.05.31-.03c.87.48,1.87.74,2.94.74,2.23,0,4.19-1.17,5.27-2.9l.41-.78.03-.07.35-.13.08.05.87.26c.3.06.62.09.94.09,1.2,0,2.29-.45,3.12-1.18l.72-.82.16-.28.1-.1.74-.4.68-.55.56-.67.09-.16.33-.1.08.04.41.12c.14.03.29.04.45.04,1.21,0,2.19-.97,2.19-2.14s-.98-2.14-2.19-2.14l-.44.04-.21.07-.29-.12-.41-.73-.72-.82c-.82-.73-1.92-1.18-3.12-1.18-.24,0-.48.02-.71.05l-.67.15-.25.09-.29-.1-.04-.06-.43-.54c-1.07-1.22-2.66-1.99-4.43-1.99-.2,0-.4.01-.6.03l-.32.05-.26-.14-.22-.45-.54-.84c-1.41-1.89-3.68-3.11-6.24-3.11-2.33,0-4.43,1.01-5.84,2.62l-.57.72-.21.33-.33.09-.25-.13-.87-.26c-.3-.06-.61-.09-.93-.09-1.96,0-3.64,1.19-4.32,2.87l-.23.75-.07.42-.31.2-.09-.02-1.04-.1c-2.86,0-5.17,2.27-5.17,5.06s2.31,5.06,5.17,5.06l.97-.09.94-.27.3.15c1.4,3.23,4.67,5.51,8.49,5.51ZM30.61,48.19c-3.52,0-6.6-1.83-8.31-4.58l-.54-1.04-.76.22h-.02c-.35.07-.71.1-1.07.1-3.12,0-5.67-2.48-5.67-5.55s2.54-5.55,5.67-5.55l.99.1.03-.18c.48-2.31,2.56-4.03,5.03-4.03.71,0,1.38.14,2,.4h.02s.06.04.06.04l.09-.15c1.48-2.15,3.98-3.56,6.82-3.56,3.12,0,5.83,1.7,7.23,4.21l.15.3.16-.02c.22-.02.43-.03.65-.03,1.92,0,3.64.83,4.8,2.15l.4.51.1-.03c.49-.15,1-.23,1.53-.23,1.77,0,3.33.88,4.25,2.22v.02s.33.58.33.58h.06c.17-.05.35-.07.54-.07,1.48,0,2.69,1.18,2.69,2.64s-1.21,2.64-2.69,2.64c-.19,0-.37-.02-.54-.05l-.39-.12-.63.74c-.23.23-.49.43-.76.61h-.02s-.69.38-.69.38l-.13.23v.02c-.94,1.34-2.5,2.21-4.27,2.21-.35,0-.7-.03-1.03-.1l-.85-.26-.37.7c-1.17,1.88-3.28,3.14-5.69,3.14-.86,0-1.68-.16-2.44-.45l-.62-.28-1.28.87c-1.42.8-3.07,1.26-4.83,1.26Z"/>
    <path class="st13" d="M19.81,31.78l.99.1.03-.18c.48-2.31,2.55-4.03,5.03-4.03.71,0,1.38.14,2,.4h.02s.06.04.06.04l.1-.15c1.48-2.15,3.98-3.56,6.82-3.56,3.12,0,5.83,1.7,7.23,4.21l.15.3.16-.02c.22-.02.43-.03.65-.03,1.92,0,3.64.83,4.8,2.15l.4.51.1-.03c.49-.15,1-.23,1.53-.23,1.77,0,3.33.88,4.25,2.22v.02s.33.58.33.58h.06c.17-.05.36-.07.54-.07,1.48,5.37-38.36,5.14-35.24-2.22Z"/>
  </g>
  <g id="Capa_4">
    <path class="st9" d="M28,39.55c-3.97,0-7.38-2.37-8.84-5.73h0s-.97.27-.97.27c-.33.06-.68.1-1.04.1-3.03,0-5.49-2.41-5.49-5.37s2.46-5.37,5.49-5.37c.38,0,.75.04,1.11.11l.1.03.07-.43c.46-2.21,2.46-3.87,4.85-3.87.68,0,1.33.14,1.93.38l.27.14.21-.35c1.45-2.1,3.91-3.49,6.7-3.49,3.06,0,5.73,1.67,7.1,4.14l.23.46.34-.05c.21-.02.42-.03.63-.03,2.13,0,4.02,1.06,5.13,2.67l.05.07.27-.1c.46-.14.96-.22,1.47-.22,1.71,0,3.21.85,4.1,2.14l.42.76.23-.07c.16-.03.33-.05.5-.05,1.37,0,2.47,1.08,2.47,2.42s-1.11,2.42-2.47,2.42c-.34,0-.67-.07-.96-.19l-.1-.05-.1.17c-.35.52-.81.96-1.34,1.31l-.77.41-.16.3c-.89,1.29-2.4,2.14-4.1,2.14-.68,0-1.34-.13-1.93-.38l-.1-.05-.03.08c-.99,2.28-3.29,3.88-5.98,3.88-1.12,0-2.18-.28-3.1-.77l-.03-.02-.06.06c-1.66,1.34-3.78,2.14-6.1,2.14Z"/>
    <path class="st12" d="M28,39.3c1.69,0,3.28-.44,4.65-1.21l1.29-.87.05-.05.32-.03c.88.48,1.9.75,2.98.75,2.26,0,4.24-1.18,5.34-2.94l.41-.79.03-.07.35-.14.09.05.88.27c.3.06.62.09.95.09,1.21,0,2.32-.45,3.16-1.19l.73-.83.16-.28.1-.1.75-.4.69-.56.57-.67.09-.16.34-.1.08.04.41.12c.14.03.29.04.45.04,1.23,0,2.22-.98,2.22-2.17s-.99-2.17-2.22-2.17l-.45.04-.21.06-.29-.12-.41-.74-.73-.83c-.83-.74-1.94-1.2-3.16-1.2-.24,0-.48.02-.71.05l-.68.15-.26.09-.3-.1-.04-.06-.43-.55c-1.09-1.23-2.69-2.01-4.48-2.01-.21,0-.41.01-.61.03l-.32.05-.26-.14-.22-.45-.55-.85c-1.42-1.91-3.73-3.15-6.33-3.15-2.36,0-4.48,1.03-5.92,2.65l-.57.73-.21.34-.33.09-.25-.13-.88-.27c-.3-.06-.62-.1-.95-.1-1.99,0-3.69,1.21-4.37,2.91l-.23.76-.07.42-.31.21-.09-.02-1.05-.1c-2.9,0-5.24,2.3-5.24,5.12s2.34,5.12,5.24,5.12l.99-.09.95-.27.3.15c1.42,3.28,4.73,5.58,8.6,5.58ZM28,39.8c-3.56,0-6.69-1.86-8.42-4.64l-.55-1.05-.77.22h-.02c-.35.07-.71.1-1.08.1-3.16,0-5.74-2.52-5.74-5.63s2.58-5.63,5.74-5.63l1,.1.03-.18c.49-2.34,2.59-4.08,5.1-4.08.71,0,1.4.14,2.02.4h.02s.06.04.06.04l.1-.15c1.5-2.18,4.03-3.61,6.9-3.61,3.16,0,5.91,1.73,7.32,4.27l.15.31.16-.02c.22-.02.44-.03.66-.03,1.94,0,3.68.84,4.86,2.18l.4.52.1-.03c.49-.15,1.01-.23,1.55-.23,1.79,0,3.38.89,4.31,2.25v.02s.33.58.33.58h.06c.18-.05.36-.07.55-.07,1.5,0,2.73,1.19,2.73,2.67s-1.23,2.68-2.73,2.68c-.19,0-.37-.02-.55-.05l-.4-.12-.63.75c-.24.23-.49.44-.77.62h-.02s-.7.38-.7.38l-.13.23v.02c-.95,1.35-2.53,2.25-4.32,2.25-.36,0-.71-.03-1.05-.1l-.86-.26-.37.71c-1.19,1.91-3.33,3.18-5.77,3.18-.87,0-1.71-.16-2.47-.46l-.62-.29-1.3.88c-1.44.81-3.11,1.28-4.89,1.28Z"/>
    <path class="st13" d="M17.05,23.18l1,.1.03-.18c.49-2.34,2.59-4.08,5.1-4.08.71,0,1.4.14,2.02.4h.02s.06.04.06.04l.1-.15c1.5-2.18,4.04-3.61,6.91-3.61,3.16,0,5.91,1.73,7.32,4.27l.15.31.16-.02c.22-.02.44-.03.66-.03,1.94,0,3.68.84,4.87,2.18l.4.52.1-.03c.49-.15,1.01-.23,1.55-.23,1.79,0,3.37.89,4.31,2.25v.02s.34.58.34.58h.06c.18-.05.36-.07.55-.07,1.5,5.44-38.87,5.21-35.7-2.25Z"/>
  </g>
</svg>