<?xml version="1.0" encoding="UTF-8"?>
<svg id="Capa_2" xmlns="http://www.w3.org/2000/svg" version="1.1" xmlns:xlink="http://www.w3.org/1999/xlink" viewBox="0 0 64.7 57.96">
  <!-- Generator: Adobe Illustrator 29.6.1, SVG Export Plug-In . SVG Version: 2.1.1 Build 9)  -->
  <defs>
    <style>
      .st0 {
        fill: url(#linear-gradient25);
      }

      .st0, .st1, .st2, .st3, .st4, .st5, .st6, .st7, .st8, .st9, .st10, .st11, .st12, .st13, .st14, .st15, .st16, .st17, .st18, .st19, .st20, .st21, .st22, .st23, .st24, .st25, .st26, .st27, .st28, .st29, .st30, .st31, .st32, .st33, .st34, .st35, .st36, .st37 {
        fill-rule: evenodd;
      }

      .st1 {
        fill: #3a3a3e;
      }

      .st1, .st16 {
        opacity: .46;
      }

      .st2 {
        fill: url(#linear-gradient14);
      }

      .st3 {
        fill: url(#linear-gradient9);
      }

      .st4 {
        fill: url(#linear-gradient10);
      }

      .st5 {
        fill: url(#linear-gradient13);
      }

      .st6 {
        fill: url(#linear-gradient24);
      }

      .st7, .st13, .st30, .st31 {
        fill: #fff;
      }

      .st7, .st22 {
        opacity: .12;
      }

      .st8 {
        opacity: .25;
      }

      .st8, .st22 {
        fill: #ff0;
      }

      .st9 {
        fill: url(#linear-gradient6);
      }

      .st10, .st21 {
        fill: #ffbf00;
      }

      .st11 {
        fill: url(#linear-gradient17);
      }

      .st12 {
        fill: url(#linear-gradient21);
      }

      .st13 {
        opacity: .34;
      }

      .st14 {
        fill: url(#linear-gradient18);
      }

      .st15, .st16 {
        fill: #4fa4c9;
      }

      .st17 {
        fill: url(#linear-gradient8);
      }

      .st18 {
        fill: url(#linear-gradient15);
      }

      .st19 {
        fill: url(#linear-gradient5);
      }

      .st20 {
        fill: url(#linear-gradient1);
      }

      .st21 {
        opacity: .5;
      }

      .st23 {
        fill: url(#linear-gradient20);
      }

      .st24 {
        fill: url(#linear-gradient11);
      }

      .st25 {
        fill: url(#linear-gradient7);
      }

      .st38 {
        display: none;
      }

      .st26 {
        fill: url(#linear-gradient16);
      }

      .st27 {
        fill: url(#linear-gradient4);
      }

      .st28 {
        fill: url(#linear-gradient23);
      }

      .st29 {
        fill: url(#linear-gradient12);
      }

      .st30 {
        opacity: .45;
      }

      .st31 {
        opacity: .35;
      }

      .st32 {
        fill: url(#linear-gradient19);
      }

      .st33 {
        fill: url(#linear-gradient3);
      }

      .st34 {
        fill: url(#linear-gradient);
      }

      .st35 {
        fill: #d59701;
      }

      .st36 {
        fill: url(#linear-gradient22);
      }

      .st37 {
        fill: url(#linear-gradient2);
      }
    </style>
    <linearGradient id="linear-gradient" x1="-262.62" y1="256.23" x2="-261.62" y2="256.23" gradientTransform="translate(8395.8 5984.81) rotate(79.77) scale(28.02 27.99) skewX(.02)" gradientUnits="userSpaceOnUse">
      <stop offset="0" stop-color="#ffbf00"/>
      <stop offset="1" stop-color="#ff8000"/>
    </linearGradient>
    <linearGradient id="linear-gradient1" x1="-260.81" y1="257.52" x2="-259.81" y2="257.52" gradientTransform="translate(5668.8 3986.79) rotate(79.77) scale(18.8)" xlink:href="#linear-gradient"/>
    <linearGradient id="linear-gradient2" x1="-269.38" y1="255.46" x2="-268.38" y2="255.46" gradientTransform="translate(2891.18 -12911.96) rotate(-34.02) scale(35.72)" gradientUnits="userSpaceOnUse">
      <stop offset="0" stop-color="#ff0"/>
      <stop offset="1" stop-color="#ff8000"/>
    </linearGradient>
    <linearGradient id="linear-gradient3" x1="-263.07" y1="258.3" x2="-262.07" y2="258.3" gradientTransform="translate(8448.57 5984.81) rotate(79.78) scale(28.02 27.99) skewX(.03)" xlink:href="#linear-gradient"/>
    <linearGradient id="linear-gradient4" x1="-261.47" y1="260.61" x2="-260.47" y2="260.61" gradientTransform="translate(5722.11 3986.79) rotate(79.77) scale(18.8)" xlink:href="#linear-gradient"/>
    <linearGradient id="linear-gradient5" x1="-270.72" y1="254.48" x2="-269.72" y2="254.48" gradientTransform="translate(2944.75 -12912.21) rotate(-34.02) scale(35.72)" xlink:href="#linear-gradient2"/>
    <linearGradient id="linear-gradient6" x1="-262.61" y1="257.24" x2="-261.61" y2="257.24" gradientTransform="translate(7902.59 8057.96) rotate(90) scale(30.58)" gradientUnits="userSpaceOnUse">
      <stop offset="0" stop-color="#fff"/>
      <stop offset="1" stop-color="#86a4aa"/>
    </linearGradient>
    <linearGradient id="linear-gradient7" x1="-261.73" y1="257.51" x2="-260.73" y2="257.51" gradientTransform="translate(6370.52 6974.52) rotate(92.22) scale(25.63)" gradientUnits="userSpaceOnUse">
      <stop offset="0" stop-color="#86a4aa"/>
      <stop offset="1" stop-color="#fff"/>
    </linearGradient>
    <linearGradient id="linear-gradient8" x1="-263.07" y1="258.3" x2="-262.07" y2="258.3" gradientTransform="translate(8448.57 5984.81) rotate(79.78) scale(28.02 27.99) skewX(.03)" xlink:href="#linear-gradient"/>
    <linearGradient id="linear-gradient9" x1="-261.47" y1="260.61" x2="-260.47" y2="260.61" gradientTransform="translate(5722.11 3986.79) rotate(79.77) scale(18.8)" xlink:href="#linear-gradient"/>
    <linearGradient id="linear-gradient10" x1="-270.72" y1="254.48" x2="-269.72" y2="254.48" gradientTransform="translate(2944.75 -12912.21) rotate(-34.02) scale(35.72)" xlink:href="#linear-gradient2"/>
    <linearGradient id="linear-gradient11" x1="-262.73" y1="259.06" x2="-261.73" y2="259.06" gradientTransform="translate(8059.62 8158.62) rotate(90) scale(30.98)" xlink:href="#linear-gradient6"/>
    <linearGradient id="linear-gradient12" x1="-261.79" y1="259.68" x2="-260.79" y2="259.68" gradientTransform="translate(6507.55 7060.51) rotate(92.22) scale(25.96)" xlink:href="#linear-gradient7"/>
    <linearGradient id="linear-gradient13" x1="-274.09" y1="239.76" x2="-273.09" y2="239.76" gradientTransform="translate(-3586.08 -4602.28) rotate(-86.75) scale(16.14)" gradientUnits="userSpaceOnUse">
      <stop offset="0" stop-color="#6b868d"/>
      <stop offset="1" stop-color="#86a4aa"/>
    </linearGradient>
    <linearGradient id="linear-gradient14" x1="-261.62" y1="262.1" x2="-260.62" y2="262.1" gradientTransform="translate(6565.57 7053.86) rotate(92.22) scale(25.96)" xlink:href="#linear-gradient7"/>
    <linearGradient id="linear-gradient15" x1="-274.1" y1="239.76" x2="-273.1" y2="239.76" gradientTransform="translate(-3575.68 -4591.75) rotate(-86.75) scale(16.14)" xlink:href="#linear-gradient13"/>
    <linearGradient id="linear-gradient16" x1="-261.62" y1="262.1" x2="-260.62" y2="262.1" gradientTransform="translate(6574.94 7063.86) rotate(92.22) scale(25.96)" xlink:href="#linear-gradient7"/>
    <linearGradient id="linear-gradient17" x1="-275.35" y1="233.17" x2="-274.35" y2="233.17" gradientTransform="translate(-3037.93 -4037.31) rotate(-86.75) scale(14.12)" xlink:href="#linear-gradient13"/>
    <linearGradient id="linear-gradient18" x1="-260.92" y1="266.21" x2="-259.92" y2="266.21" gradientTransform="translate(5839.3 6156.19) rotate(92.22) scale(22.7)" xlink:href="#linear-gradient7"/>
    <linearGradient id="linear-gradient19" x1="-275.34" y1="233.17" x2="-274.34" y2="233.17" gradientTransform="translate(-3029.57 -4027.33) rotate(-86.76) scale(14.12)" xlink:href="#linear-gradient13"/>
    <linearGradient id="linear-gradient20" x1="-260.92" y1="266.21" x2="-259.92" y2="266.21" gradientTransform="translate(5847.44 6164.85) rotate(92.22) scale(22.7)" xlink:href="#linear-gradient7"/>
    <linearGradient id="linear-gradient21" x1="-272.26" y1="246.88" x2="-271.26" y2="246.88" gradientTransform="translate(-4694.03 -12022.06) rotate(-69.14) scale(35.27)" gradientUnits="userSpaceOnUse">
      <stop offset="0" stop-color="#ff0"/>
      <stop offset="1" stop-color="#ffbf00"/>
    </linearGradient>
    <linearGradient id="linear-gradient22" x1="-263.85" y1="256.18" x2="-262.85" y2="256.18" gradientTransform="translate(5651.35 5803.25) rotate(90) scale(21.94)" gradientUnits="userSpaceOnUse">
      <stop offset="0" stop-color="#fff"/>
      <stop offset="1" stop-color="#4fa4c9"/>
    </linearGradient>
    <linearGradient id="linear-gradient23" x1="-263.85" y1="255.73" x2="-262.85" y2="255.73" gradientTransform="translate(5639.05 6258.4) rotate(92.22) scale(22.86)" gradientUnits="userSpaceOnUse">
      <stop offset="0" stop-color="#8dc6ff"/>
      <stop offset="1" stop-color="#fff"/>
    </linearGradient>
    <linearGradient id="linear-gradient24" x1="-263.85" y1="256.18" x2="-262.85" y2="256.18" gradientTransform="translate(5660.05 5812.5) rotate(90) scale(21.94)" xlink:href="#linear-gradient22"/>
    <linearGradient id="linear-gradient25" x1="-263.85" y1="255.73" x2="-262.85" y2="255.73" gradientTransform="translate(5647.99 6268.46) rotate(92.22) scale(22.87)" xlink:href="#linear-gradient23"/>
  </defs>
  <g id="Capa_1" class="st38">
    <polygon class="st21" points="17.93 31.89 23.92 31.62 19.45 35.62 25.18 33.86 21.84 38.84 26.96 35.72 24.96 41.37 29.14 37.08 28.62 43.05 31.6 37.85 32.57 43.76 34.16 37.98 36.58 43.47 36.68 37.48 40.39 42.19 39 36.36 43.76 40.01 40.96 34.7 46.48 37.05 42.45 32.61 48.38 33.51 43.38 30.21 49.34 29.61 43.67 27.66 49.3 25.59 43.33 25.11 48.27 21.71 42.36 22.73 46.3 18.21 40.83 20.67 43.52 15.31 38.83 19.05 40.1 13.19 36.5 17.98 36.27 11.98 33.97 17.52 32.26 11.77 31.4 17.7 28.32 12.56 28.97 18.52 24.7 14.31 26.81 19.92 21.63 16.9 25.07 21.81 19.3 20.17 23.85 24.08 17.86 23.92 23.24 26.57 17.39 27.91 23.26 29.14 17.93 31.89"/>
    <polygon class="st34" points="16.41 34.71 23.19 33.54 18.67 38.73 24.94 35.91 21.86 42.06 27.24 37.76 25.78 44.49 29.92 38.99 30.18 45.87 32.82 39.51 34.78 46.11 35.76 39.3 39.3 45.19 38.56 38.36 43.46 43.19 41.03 36.75 46.98 40.21 43.03 34.58 49.65 36.46 44.42 31.98 51.3 32.15 45.13 29.12 51.83 27.57 45.09 26.17 51.2 23 44.33 23.32 49.46 18.73 42.88 20.75 46.71 15.03 40.84 18.62 43.13 12.13 38.34 17.06 38.94 10.21 35.52 16.18 34.4 9.39 32.57 16.03 29.8 9.73 29.68 16.61 25.43 11.2 27.03 17.89 21.56 13.71 24.78 19.8 18.44 17.11 23.07 22.2 16.26 21.17 22.01 24.96 15.16 25.65 21.67 27.89 15.21 30.26 22.07 30.81 16.41 34.71"/>
    <path class="st20" d="M21.08,28.43c-.59-6.77,4.42-12.75,11.2-13.34,6.77-.59,12.75,4.42,13.34,11.2.59,6.77-4.42,12.75-11.2,13.34-6.77.59-12.75-4.42-13.34-11.2Z"/>
    <path class="st22" d="M21.08,28.43c-.59-6.77,4.42-12.75,11.2-13.34,6.77-.59,12.75,4.43,13.34,11.2,1.08,7.86-23.32,10.32-24.54,2.15Z"/>
    <path class="st8" d="M23.08,25.65c-1.67-2.65-.09-6.45,3.51-8.47,3.61-2.02,7.89-1.52,9.56,1.14,1.67,2.65.09,6.45-3.51,8.48-3.61,2.02-7.89,1.52-9.56-1.14Z"/>
    <path class="st37" d="M33.17,39.41c.41,0,.82,0,1.23-.04,6.63-.58,11.53-6.43,10.95-13.06-.58-6.63-6.43-11.53-13.05-10.95-6.63.58-11.53,6.43-10.95,13.05.54,6.21,5.72,10.91,11.82,11ZM33.16,39.94c-6.38-.09-11.78-5-12.35-11.49-.6-6.92,4.52-13.03,11.44-13.63,6.92-.61,13.03,4.52,13.63,11.44.6,6.92-4.52,13.03-11.44,13.63-.43.04-.86.05-1.29.05Z"/>
    <polygon class="st21" points="11.93 29.81 17.92 29.54 13.44 33.53 19.18 31.78 15.84 36.76 20.95 33.64 18.96 39.29 23.14 34.99 22.61 40.96 25.59 35.76 26.56 41.68 28.16 35.9 30.57 41.39 30.68 35.39 34.38 40.11 32.99 34.28 37.75 37.92 34.95 32.62 40.47 34.97 36.45 30.53 42.37 31.43 37.37 28.13 43.33 27.53 37.67 25.57 43.3 23.51 37.32 23.03 42.26 19.63 36.35 20.65 40.29 16.13 34.82 18.58 37.51 13.22 32.82 16.96 34.1 11.1 30.49 15.89 30.26 9.9 27.96 15.43 26.25 9.69 25.39 15.62 22.31 10.48 22.96 16.44 18.69 12.22 20.8 17.84 15.62 14.81 19.06 19.73 13.29 18.09 17.84 21.99 11.85 21.84 17.23 24.49 11.39 25.83 17.25 27.06 11.93 29.81"/>
    <polygon class="st33" points="10.4 32.63 17.18 31.46 12.66 36.65 18.94 33.82 15.85 39.97 21.23 35.68 19.77 42.4 23.91 36.91 24.17 43.78 26.81 37.43 28.78 44.02 29.75 37.21 33.3 43.11 32.55 36.27 37.45 41.11 35.02 34.67 40.97 38.13 37.02 32.5 43.64 34.37 38.41 29.9 45.29 30.07 39.12 27.03 45.82 25.49 39.09 24.08 45.2 20.92 38.32 21.23 43.45 16.65 36.88 18.66 40.71 12.95 34.83 16.54 37.12 10.05 32.33 14.98 32.93 8.13 29.51 14.1 28.39 7.31 26.57 13.94 23.79 7.65 23.68 14.53 19.42 9.12 21.02 15.81 15.56 11.63 18.77 17.71 12.44 15.02 17.06 20.12 10.26 19.09 16 22.87 9.16 23.57 15.66 25.8 9.21 28.18 16.06 28.72 10.4 32.63"/>
    <path class="st27" d="M15.08,26.35c-.59-6.77,4.42-12.75,11.2-13.34,6.77-.59,12.75,4.42,13.34,11.2.59,6.77-4.42,12.75-11.2,13.34-6.77.59-12.75-4.42-13.34-11.2Z"/>
    <path class="st22" d="M15.07,26.35c-.59-6.77,4.42-12.75,11.2-13.34,6.77-.59,12.75,4.43,13.34,11.2,1.08,7.86-23.33,10.32-24.54,2.15Z"/>
    <path class="st8" d="M17.07,23.57c-1.67-2.65-.09-6.45,3.51-8.47,3.61-2.02,7.89-1.52,9.56,1.14,1.67,2.65.09,6.45-3.52,8.48-3.61,2.02-7.89,1.52-9.56-1.14Z"/>
    <path class="st19" d="M27.16,37.32c.41,0,.82,0,1.23-.04,6.62-.58,11.53-6.43,10.95-13.06-.58-6.63-6.43-11.53-13.05-10.95-6.63.58-11.53,6.43-10.95,13.05.54,6.21,5.72,10.91,11.82,11ZM27.15,37.86c-6.38-.09-11.78-5-12.35-11.49-.61-6.92,4.52-13.03,11.44-13.63,6.92-.61,13.03,4.52,13.63,11.44.6,6.92-4.52,13.03-11.44,13.63-.43.04-.86.05-1.29.05Z"/>
    <path class="st35" d="M29.09,45.52c-3.16,0-5.93-1.64-7.46-4.11l-.49-.93-.69.19h-.02c-.31.06-.63.09-.96.09-2.8,0-5.09-2.23-5.09-4.98,0-2.58,2.01-4.7,4.57-4.96l.43-.02h0s.03,0,.03,0h.06s.8.08.8.08l.03-.16c.43-2.07,2.29-3.62,4.52-3.62h.04s.05,0,.05,0c.63,0,1.24.13,1.79.35h0s.06-.09.06-.09c1.33-1.93,3.58-3.2,6.12-3.2h.04s.05,0,.05,0c2.8,0,5.24,1.53,6.49,3.78l.13.26h.06c.19-.03.39-.04.58-.04h.04s.04,0,.04,0l2.43,12.65-.33.63c-1.05,1.69-2.95,2.82-5.11,2.82-.77,0-1.51-.14-2.19-.41l-.55-.25-1.15.78c-1.28.72-2.76,1.13-4.34,1.13Z"/>
    <path class="st9" d="M30.61,47.94c-3.92,0-7.28-2.33-8.72-5.66h0s-.95.26-.95.26c-.33.06-.68.1-1.03.1-2.99,0-5.42-2.38-5.42-5.31s2.43-5.3,5.42-5.3c.37,0,.74.04,1.09.11l.1.02.07-.43c.46-2.18,2.43-3.82,4.79-3.82.67,0,1.32.13,1.9.38l.26.14.21-.34c1.43-2.07,3.86-3.44,6.61-3.44,3.02,0,5.66,1.65,7.01,4.08l.22.46.33-.05c.21-.02.41-.03.62-.03,2.11,0,3.96,1.05,5.06,2.64l.05.07.27-.1c.46-.14.95-.22,1.45-.22,1.68,0,3.17.84,4.05,2.11l.42.75.23-.07c.16-.03.32-.05.49-.05,1.35,0,2.44,1.07,2.44,2.39s-1.09,2.39-2.44,2.39c-.34,0-.66-.07-.95-.19l-.1-.05-.09.17c-.35.51-.8.95-1.32,1.29l-.76.4-.16.29c-.88,1.27-2.37,2.11-4.05,2.11-.67,0-1.32-.13-1.9-.38l-.1-.05-.03.08c-.98,2.25-3.25,3.83-5.91,3.83-1.11,0-2.15-.27-3.06-.76l-.03-.02-.06.06c-1.64,1.32-3.73,2.12-6.02,2.12Z"/>
    <path class="st25" d="M30.61,47.69c1.67,0,3.24-.43,4.59-1.2l1.27-.86.05-.05.31-.03c.87.48,1.87.74,2.94.74,2.23,0,4.19-1.17,5.27-2.9l.41-.78.03-.07.35-.13.08.05.87.26c.3.06.62.09.94.09,1.2,0,2.29-.45,3.12-1.18l.72-.82.16-.28.1-.1.74-.4.68-.55.56-.67.09-.16.33-.1.08.04.41.12c.14.03.29.04.45.04,1.21,0,2.19-.97,2.19-2.14s-.98-2.14-2.19-2.14l-.44.04-.21.07-.29-.12-.41-.73-.72-.82c-.82-.73-1.92-1.18-3.12-1.18-.24,0-.48.02-.71.05l-.67.15-.25.09-.29-.1-.04-.06-.43-.54c-1.07-1.22-2.66-1.99-4.43-1.99-.2,0-.4.01-.6.03l-.32.05-.26-.14-.22-.45-.54-.84c-1.41-1.89-3.68-3.11-6.24-3.11-2.33,0-4.43,1.01-5.84,2.62l-.57.72-.21.33-.33.09-.25-.13-.87-.26c-.3-.06-.61-.09-.93-.09-1.96,0-3.64,1.19-4.32,2.87l-.23.75-.07.42-.31.2-.09-.02-1.04-.1c-2.86,0-5.17,2.27-5.17,5.06s2.31,5.06,5.17,5.06l.97-.09.94-.27.3.15c1.4,3.23,4.67,5.51,8.49,5.51ZM30.61,48.19c-3.52,0-6.6-1.83-8.31-4.58l-.54-1.04-.76.22h-.02c-.35.07-.71.1-1.07.1-3.12,0-5.67-2.48-5.67-5.55s2.54-5.55,5.67-5.55l.99.1.03-.18c.48-2.31,2.56-4.03,5.03-4.03.71,0,1.38.14,2,.4h.02s.06.04.06.04l.09-.15c1.48-2.15,3.98-3.56,6.82-3.56,3.12,0,5.83,1.7,7.23,4.21l.15.3.16-.02c.22-.02.43-.03.65-.03,1.92,0,3.64.83,4.8,2.15l.4.51.1-.03c.49-.15,1-.23,1.53-.23,1.77,0,3.33.88,4.25,2.22v.02s.33.58.33.58h.06c.17-.05.35-.07.54-.07,1.48,0,2.69,1.18,2.69,2.64s-1.21,2.64-2.69,2.64c-.19,0-.37-.02-.54-.05l-.39-.12-.63.74c-.23.23-.49.43-.76.61h-.02s-.69.38-.69.38l-.13.23v.02c-.94,1.34-2.5,2.21-4.27,2.21-.35,0-.7-.03-1.03-.1l-.85-.26-.37.7c-1.17,1.88-3.28,3.14-5.69,3.14-.86,0-1.68-.16-2.44-.45l-.62-.28-1.28.87c-1.42.8-3.07,1.26-4.83,1.26Z"/>
    <path class="st31" d="M19.81,31.78l.99.1.03-.18c.48-2.31,2.55-4.03,5.03-4.03.71,0,1.38.14,2,.4h.02s.06.04.06.04l.1-.15c1.48-2.15,3.98-3.56,6.82-3.56,3.12,0,5.83,1.7,7.23,4.21l.15.3.16-.02c.22-.02.43-.03.65-.03,1.92,0,3.64.83,4.8,2.15l.4.51.1-.03c.49-.15,1-.23,1.53-.23,1.77,0,3.33.88,4.25,2.22v.02s.33.58.33.58h.06c.17-.05.36-.07.54-.07,1.48,5.37-38.36,5.14-35.24-2.22Z"/>
  </g>
  <g id="Capa_3" class="st38">
    <polygon class="st21" points="11.93 29.81 17.92 29.54 13.44 33.53 19.18 31.78 15.84 36.76 20.95 33.64 18.96 39.29 23.14 34.99 22.61 40.96 25.59 35.76 26.56 41.68 28.16 35.9 30.57 41.39 30.68 35.39 34.38 40.11 32.99 34.28 37.75 37.92 34.95 32.62 40.47 34.97 36.45 30.53 42.37 31.43 37.37 28.13 43.33 27.53 37.67 25.57 43.3 23.51 37.32 23.03 42.26 19.63 36.35 20.65 40.29 16.13 34.82 18.58 37.51 13.22 32.82 16.96 34.1 11.1 30.49 15.89 30.26 9.9 27.96 15.43 26.25 9.69 25.39 15.62 22.31 10.48 22.96 16.44 18.69 12.22 20.8 17.84 15.62 14.81 19.06 19.73 13.29 18.09 17.84 21.99 11.85 21.84 17.23 24.49 11.39 25.83 17.25 27.06 11.93 29.81"/>
    <polygon class="st17" points="10.4 32.63 17.18 31.46 12.66 36.65 18.94 33.82 15.85 39.97 21.23 35.68 19.77 42.4 23.91 36.91 24.17 43.78 26.81 37.43 28.78 44.02 29.75 37.21 33.3 43.11 32.55 36.27 37.45 41.11 35.02 34.67 40.97 38.13 37.02 32.5 43.64 34.37 38.41 29.9 45.29 30.07 39.12 27.03 45.82 25.49 39.09 24.08 45.2 20.92 38.32 21.23 43.45 16.65 36.88 18.66 40.71 12.95 34.83 16.54 37.12 10.05 32.33 14.98 32.93 8.13 29.51 14.1 28.39 7.31 26.57 13.94 23.79 7.65 23.68 14.53 19.42 9.12 21.02 15.81 15.56 11.63 18.77 17.71 12.44 15.02 17.06 20.12 10.26 19.09 16 22.87 9.16 23.57 15.66 25.8 9.21 28.18 16.06 28.72 10.4 32.63"/>
    <path class="st3" d="M15.08,26.35c-.59-6.77,4.42-12.75,11.2-13.34,6.77-.59,12.75,4.42,13.34,11.2.59,6.77-4.42,12.75-11.2,13.34-6.77.59-12.75-4.42-13.34-11.2Z"/>
    <path class="st22" d="M15.07,26.35c-.59-6.77,4.42-12.75,11.2-13.34,6.77-.59,12.75,4.43,13.34,11.2,1.08,7.86-23.33,10.32-24.54,2.15Z"/>
    <path class="st8" d="M17.07,23.57c-1.67-2.65-.09-6.45,3.51-8.47,3.61-2.02,7.89-1.52,9.56,1.14,1.67,2.65.09,6.45-3.52,8.48-3.61,2.02-7.89,1.52-9.56-1.14Z"/>
    <path class="st4" d="M27.16,37.32c.41,0,.82,0,1.23-.04,6.62-.58,11.53-6.43,10.95-13.06-.58-6.63-6.43-11.53-13.05-10.95-6.63.58-11.53,6.43-10.95,13.05.54,6.21,5.72,10.91,11.82,11ZM27.15,37.86c-6.38-.09-11.78-5-12.35-11.49-.61-6.92,4.52-13.03,11.44-13.63,6.92-.61,13.03,4.52,13.63,11.44.6,6.92-4.52,13.03-11.44,13.63-.43.04-.86.05-1.29.05Z"/>
    <path class="st35" d="M29.09,45.52c-3.16,0-5.93-1.64-7.46-4.11l-.49-.93-.69.19h-.02c-.31.06-.63.09-.96.09-2.8,0-5.09-2.23-5.09-4.98,0-2.58,2.01-4.7,4.57-4.96l.43-.02h0s.03,0,.03,0h.06s.8.08.8.08l.03-.16c.43-2.07,2.29-3.62,4.52-3.62h.04s.05,0,.05,0c.63,0,1.24.13,1.79.35h0s.06-.09.06-.09c1.33-1.93,3.58-3.2,6.12-3.2h.04s.05,0,.05,0c2.8,0,5.24,1.53,6.49,3.78l.13.26h.06c.19-.03.39-.04.58-.04h.04s.04,0,.04,0l2.43,12.65-.33.63c-1.05,1.69-2.95,2.82-5.11,2.82-.77,0-1.51-.14-2.19-.41l-.55-.25-1.15.78c-1.28.72-2.76,1.13-4.34,1.13Z"/>
    <path class="st9" d="M30.61,47.94c-3.92,0-7.28-2.33-8.72-5.66h0s-.95.26-.95.26c-.33.06-.68.1-1.03.1-2.99,0-5.42-2.38-5.42-5.31s2.43-5.3,5.42-5.3c.37,0,.74.04,1.09.11l.1.02.07-.43c.46-2.18,2.43-3.82,4.79-3.82.67,0,1.32.13,1.9.38l.26.14.21-.34c1.43-2.07,3.86-3.44,6.61-3.44,3.02,0,5.66,1.65,7.01,4.08l.22.46.33-.05c.21-.02.41-.03.62-.03,2.11,0,3.96,1.05,5.06,2.64l.05.07.27-.1c.46-.14.95-.22,1.45-.22,1.68,0,3.17.84,4.05,2.11l.42.75.23-.07c.16-.03.32-.05.49-.05,1.35,0,2.44,1.07,2.44,2.39s-1.09,2.39-2.44,2.39c-.34,0-.66-.07-.95-.19l-.1-.05-.09.17c-.35.51-.8.95-1.32,1.29l-.76.4-.16.29c-.88,1.27-2.37,2.11-4.05,2.11-.67,0-1.32-.13-1.9-.38l-.1-.05-.03.08c-.98,2.25-3.25,3.83-5.91,3.83-1.11,0-2.15-.27-3.06-.76l-.03-.02-.06.06c-1.64,1.32-3.73,2.12-6.02,2.12Z"/>
    <path class="st25" d="M30.61,47.69c1.67,0,3.24-.43,4.59-1.2l1.27-.86.05-.05.31-.03c.87.48,1.87.74,2.94.74,2.23,0,4.19-1.17,5.27-2.9l.41-.78.03-.07.35-.13.08.05.87.26c.3.06.62.09.94.09,1.2,0,2.29-.45,3.12-1.18l.72-.82.16-.28.1-.1.74-.4.68-.55.56-.67.09-.16.33-.1.08.04.41.12c.14.03.29.04.45.04,1.21,0,2.19-.97,2.19-2.14s-.98-2.14-2.19-2.14l-.44.04-.21.07-.29-.12-.41-.73-.72-.82c-.82-.73-1.92-1.18-3.12-1.18-.24,0-.48.02-.71.05l-.67.15-.25.09-.29-.1-.04-.06-.43-.54c-1.07-1.22-2.66-1.99-4.43-1.99-.2,0-.4.01-.6.03l-.32.05-.26-.14-.22-.45-.54-.84c-1.41-1.89-3.68-3.11-6.24-3.11-2.33,0-4.43,1.01-5.84,2.62l-.57.72-.21.33-.33.09-.25-.13-.87-.26c-.3-.06-.61-.09-.93-.09-1.96,0-3.64,1.19-4.32,2.87l-.23.75-.07.42-.31.2-.09-.02-1.04-.1c-2.86,0-5.17,2.27-5.17,5.06s2.31,5.06,5.17,5.06l.97-.09.94-.27.3.15c1.4,3.23,4.67,5.51,8.49,5.51ZM30.61,48.19c-3.52,0-6.6-1.83-8.31-4.58l-.54-1.04-.76.22h-.02c-.35.07-.71.1-1.07.1-3.12,0-5.67-2.48-5.67-5.55s2.54-5.55,5.67-5.55l.99.1.03-.18c.48-2.31,2.56-4.03,5.03-4.03.71,0,1.38.14,2,.4h.02s.06.04.06.04l.09-.15c1.48-2.15,3.98-3.56,6.82-3.56,3.12,0,5.83,1.7,7.23,4.21l.15.3.16-.02c.22-.02.43-.03.65-.03,1.92,0,3.64.83,4.8,2.15l.4.51.1-.03c.49-.15,1-.23,1.53-.23,1.77,0,3.33.88,4.25,2.22v.02s.33.58.33.58h.06c.17-.05.35-.07.54-.07,1.48,0,2.69,1.18,2.69,2.64s-1.21,2.64-2.69,2.64c-.19,0-.37-.02-.54-.05l-.39-.12-.63.74c-.23.23-.49.43-.76.61h-.02s-.69.38-.69.38l-.13.23v.02c-.94,1.34-2.5,2.21-4.27,2.21-.35,0-.7-.03-1.03-.1l-.85-.26-.37.7c-1.17,1.88-3.28,3.14-5.69,3.14-.86,0-1.68-.16-2.44-.45l-.62-.28-1.28.87c-1.42.8-3.07,1.26-4.83,1.26Z"/>
    <path class="st31" d="M19.81,31.78l.99.1.03-.18c.48-2.31,2.55-4.03,5.03-4.03.71,0,1.38.14,2,.4h.02s.06.04.06.04l.1-.15c1.48-2.15,3.98-3.56,6.82-3.56,3.12,0,5.83,1.7,7.23,4.21l.15.3.16-.02c.22-.02.43-.03.65-.03,1.92,0,3.64.83,4.8,2.15l.4.51.1-.03c.49-.15,1-.23,1.53-.23,1.77,0,3.33.88,4.25,2.22v.02s.33.58.33.58h.06c.17-.05.36-.07.54-.07,1.48,5.37-38.36,5.14-35.24-2.22Z"/>
  </g>
  <g id="Capa_4" class="st38">
    <path class="st24" d="M28,39.55c-3.97,0-7.38-2.37-8.84-5.73h0s-.97.27-.97.27c-.33.06-.68.1-1.04.1-3.03,0-5.49-2.41-5.49-5.37s2.46-5.37,5.49-5.37c.38,0,.75.04,1.11.11l.1.03.07-.43c.46-2.21,2.46-3.87,4.85-3.87.68,0,1.33.14,1.93.38l.27.14.21-.35c1.45-2.1,3.91-3.49,6.7-3.49,3.06,0,5.73,1.67,7.1,4.14l.23.46.34-.05c.21-.02.42-.03.63-.03,2.13,0,4.02,1.06,5.13,2.67l.05.07.27-.1c.46-.14.96-.22,1.47-.22,1.71,0,3.21.85,4.1,2.14l.42.76.23-.07c.16-.03.33-.05.5-.05,1.37,0,2.47,1.08,2.47,2.42s-1.11,2.42-2.47,2.42c-.34,0-.67-.07-.96-.19l-.1-.05-.1.17c-.35.52-.81.96-1.34,1.31l-.77.41-.16.3c-.89,1.29-2.4,2.14-4.1,2.14-.68,0-1.34-.13-1.93-.38l-.1-.05-.03.08c-.99,2.28-3.29,3.88-5.98,3.88-1.12,0-2.18-.28-3.1-.77l-.03-.02-.06.06c-1.66,1.34-3.78,2.14-6.1,2.14Z"/>
    <path class="st29" d="M28,39.3c1.69,0,3.28-.44,4.65-1.21l1.29-.87.05-.05.32-.03c.88.48,1.9.75,2.98.75,2.26,0,4.24-1.18,5.34-2.94l.41-.79.03-.07.35-.14.09.05.88.27c.3.06.62.09.95.09,1.21,0,2.32-.45,3.16-1.19l.73-.83.16-.28.1-.1.75-.4.69-.56.57-.67.09-.16.34-.1.08.04.41.12c.14.03.29.04.45.04,1.23,0,2.22-.98,2.22-2.17s-.99-2.17-2.22-2.17l-.45.04-.21.06-.29-.12-.41-.74-.73-.83c-.83-.74-1.94-1.2-3.16-1.2-.24,0-.48.02-.71.05l-.68.15-.26.09-.3-.1-.04-.06-.43-.55c-1.09-1.23-2.69-2.01-4.48-2.01-.21,0-.41.01-.61.03l-.32.05-.26-.14-.22-.45-.55-.85c-1.42-1.91-3.73-3.15-6.33-3.15-2.36,0-4.48,1.03-5.92,2.65l-.57.73-.21.34-.33.09-.25-.13-.88-.27c-.3-.06-.62-.1-.95-.1-1.99,0-3.69,1.21-4.37,2.91l-.23.76-.07.42-.31.21-.09-.02-1.05-.1c-2.9,0-5.24,2.3-5.24,5.12s2.34,5.12,5.24,5.12l.99-.09.95-.27.3.15c1.42,3.28,4.73,5.58,8.6,5.58ZM28,39.8c-3.56,0-6.69-1.86-8.42-4.64l-.55-1.05-.77.22h-.02c-.35.07-.71.1-1.08.1-3.16,0-5.74-2.52-5.74-5.63s2.58-5.63,5.74-5.63l1,.1.03-.18c.49-2.34,2.59-4.08,5.1-4.08.71,0,1.4.14,2.02.4h.02s.06.04.06.04l.1-.15c1.5-2.18,4.03-3.61,6.9-3.61,3.16,0,5.91,1.73,7.32,4.27l.15.31.16-.02c.22-.02.44-.03.66-.03,1.94,0,3.68.84,4.86,2.18l.4.52.1-.03c.49-.15,1.01-.23,1.55-.23,1.79,0,3.38.89,4.31,2.25v.02s.33.58.33.58h.06c.18-.05.36-.07.55-.07,1.5,0,2.73,1.19,2.73,2.67s-1.23,2.68-2.73,2.68c-.19,0-.37-.02-.55-.05l-.4-.12-.63.75c-.24.23-.49.44-.77.62h-.02s-.7.38-.7.38l-.13.23v.02c-.95,1.35-2.53,2.25-4.32,2.25-.36,0-.71-.03-1.05-.1l-.86-.26-.37.71c-1.19,1.91-3.33,3.18-5.77,3.18-.87,0-1.71-.16-2.47-.46l-.62-.29-1.3.88c-1.44.81-3.11,1.28-4.89,1.28Z"/>
    <path class="st31" d="M17.05,23.18l1,.1.03-.18c.49-2.34,2.59-4.08,5.1-4.08.71,0,1.4.14,2.02.4h.02s.06.04.06.04l.1-.15c1.5-2.18,4.04-3.61,6.91-3.61,3.16,0,5.91,1.73,7.32,4.27l.15.31.16-.02c.22-.02.44-.03.66-.03,1.94,0,3.68.84,4.87,2.18l.4.52.1-.03c.49-.15,1.01-.23,1.55-.23,1.79,0,3.37.89,4.31,2.25v.02s.34.58.34.58h.06c.18-.05.36-.07.55-.07,1.5,5.44-38.87,5.21-35.7-2.25Z"/>
  </g>
  <g id="Capa_5" class="st38">
    <path class="st5" d="M23.06,34.29c-3.97,0-7.38-2.36-8.83-5.73h0s-.97.27-.97.27c-.34.06-.68.1-1.04.1-3.03,0-5.49-2.41-5.49-5.38s2.46-5.37,5.49-5.37c.38,0,.75.04,1.11.11l.1.03.07-.43c.46-2.21,2.46-3.87,4.85-3.87.69,0,1.33.14,1.93.38l.27.14.21-.34c1.45-2.1,3.91-3.49,6.7-3.49,3.06,0,5.73,1.68,7.1,4.14l.23.46.34-.05c.21-.02.42-.03.63-.03,2.13,0,4.02,1.06,5.13,2.67l.05.07.27-.1c.46-.14.96-.22,1.47-.22,1.71,0,3.21.85,4.1,2.14l.42.76.23-.07c.16-.03.33-.05.5-.05,1.37,0,2.47,1.09,2.47,2.42s-1.11,2.42-2.47,2.42c-.34,0-.67-.07-.96-.19l-.1-.05-.1.17c-.36.52-.81.96-1.34,1.31l-.77.41-.16.3c-.89,1.29-2.4,2.14-4.1,2.14-.69,0-1.34-.14-1.93-.38l-.1-.05-.03.08c-.99,2.28-3.3,3.88-5.98,3.88-1.12,0-2.18-.28-3.1-.77l-.03-.02-.06.06c-1.66,1.34-3.78,2.14-6.1,2.14Z"/>
    <path class="st2" d="M23.06,34.04c1.69,0,3.28-.44,4.65-1.21l1.29-.87.05-.05.32-.03c.88.48,1.9.75,2.98.75,2.26,0,4.24-1.18,5.34-2.94l.41-.79.03-.07.36-.14.09.05.88.27c.3.06.62.09.95.09,1.21,0,2.32-.45,3.16-1.19l.73-.83.16-.28.1-.1.75-.4.69-.56.57-.67.09-.16.34-.1.08.04.41.12c.15.03.29.04.45.04,1.23,0,2.22-.98,2.22-2.17s-.99-2.17-2.22-2.17l-.44.05-.22.06-.29-.12-.41-.74-.73-.83c-.83-.74-1.94-1.19-3.16-1.19-.24,0-.48.02-.71.05l-.68.15-.26.09-.3-.1-.04-.06-.43-.55c-1.09-1.23-2.7-2.01-4.49-2.01-.21,0-.41.01-.61.03l-.32.05-.26-.14-.22-.46-.55-.85c-1.42-1.91-3.73-3.15-6.33-3.15-2.37,0-4.48,1.03-5.92,2.65l-.57.73-.21.34-.33.09-.25-.13-.88-.27c-.3-.06-.62-.09-.95-.09-1.99,0-3.69,1.21-4.37,2.91l-.23.76-.07.42-.31.2-.09-.02-1.05-.1c-2.9,0-5.24,2.3-5.24,5.12s2.34,5.12,5.24,5.12l.99-.09.95-.27.3.15c1.42,3.28,4.73,5.58,8.6,5.58ZM23.06,34.54c-3.56,0-6.69-1.86-8.41-4.64l-.55-1.05-.77.22h-.02c-.35.07-.71.1-1.09.1-3.16,0-5.74-2.51-5.74-5.63s2.58-5.62,5.74-5.62l1,.1.03-.19c.49-2.34,2.59-4.08,5.1-4.08.72,0,1.4.14,2.02.4h.02s.06.04.06.04l.1-.15c1.5-2.18,4.04-3.61,6.91-3.61,3.16,0,5.91,1.73,7.32,4.27l.15.31.16-.02c.22-.02.44-.04.66-.04,1.94,0,3.68.85,4.86,2.18l.41.52.1-.03c.49-.15,1.01-.23,1.55-.23,1.79,0,3.37.89,4.31,2.24v.02s.34.58.34.58h.06c.18-.05.36-.07.55-.07,1.5,0,2.73,1.19,2.73,2.67s-1.23,2.68-2.73,2.68c-.19,0-.37-.02-.55-.05l-.4-.12-.64.75c-.23.23-.49.44-.77.62h-.02s-.7.38-.7.38l-.13.23v.02c-.95,1.35-2.53,2.25-4.32,2.25-.36,0-.71-.04-1.05-.1l-.86-.26-.37.71c-1.18,1.91-3.33,3.18-5.77,3.18-.87,0-1.71-.16-2.47-.46l-.62-.28-1.29.88c-1.44.81-3.11,1.28-4.89,1.28Z"/>
    <path class="st31" d="M12.11,17.92l1,.1.03-.19c.49-2.34,2.59-4.08,5.1-4.08.72,0,1.4.14,2.02.4h.02s.06.04.06.04l.1-.15c1.5-2.18,4.03-3.61,6.91-3.61,3.16,0,5.91,1.73,7.32,4.27l.15.31.16-.02c.22-.02.44-.04.66-.04,1.94,0,3.68.85,4.86,2.18l.41.52.1-.03c.49-.15,1.01-.23,1.55-.23,1.79,0,3.37.89,4.31,2.24v.02s.33.58.33.58h.06c.18-.05.36-.07.55-.07,1.5,5.44-38.87,5.21-35.7-2.25Z"/>
    <path class="st1" d="M31.04,42.12c-3.16,0-5.92-1.64-7.46-4.11l-.49-.93-.69.2h-.02c-.31.06-.63.09-.96.09-2.8,0-5.09-2.23-5.09-4.98,0-2.58,2.01-4.7,4.57-4.96l.43-.02h0s.03,0,.03,0h.06s.8.08.8.08l.03-.16c.43-2.07,2.29-3.62,4.52-3.62h.04s.05,0,.05,0c.63,0,1.24.13,1.79.35h0s.06-.09.06-.09c1.33-1.93,3.57-3.2,6.12-3.2h.04s.05,0,.05,0c2.8,0,5.23,1.53,6.49,3.78l.12.26h.06c.19-.03.39-.04.59-.04h.04s.04,0,.04,0l2.43,12.65-.33.63c-1.05,1.69-2.95,2.82-5.11,2.82-.77,0-1.51-.14-2.19-.4l-.55-.25-1.15.78c-1.28.72-2.76,1.13-4.34,1.13Z"/>
    <path class="st18" d="M32.94,44.81c-3.97,0-7.38-2.37-8.84-5.73h0s-.97.27-.97.27c-.34.06-.68.1-1.04.1-3.03,0-5.49-2.41-5.49-5.38s2.46-5.37,5.49-5.37c.38,0,.75.04,1.1.11l.11.03.07-.43c.46-2.21,2.46-3.87,4.85-3.87.68,0,1.33.13,1.93.38l.27.14.21-.35c1.45-2.1,3.91-3.49,6.7-3.49,3.06,0,5.73,1.67,7.1,4.14l.23.46.34-.05c.21-.02.42-.03.63-.03,2.13,0,4.02,1.06,5.13,2.67l.05.07.27-.1c.46-.14.96-.22,1.47-.22,1.71,0,3.21.85,4.1,2.14l.42.76.24-.07c.16-.03.33-.05.5-.05,1.37,0,2.47,1.08,2.47,2.42s-1.11,2.42-2.47,2.42c-.34,0-.67-.07-.96-.19l-.1-.05-.1.17c-.36.52-.81.96-1.34,1.31l-.77.41-.17.3c-.89,1.29-2.39,2.14-4.1,2.14-.69,0-1.34-.13-1.93-.38l-.1-.05-.03.08c-.99,2.28-3.29,3.88-5.98,3.88-1.12,0-2.17-.28-3.09-.77l-.03-.02-.06.06c-1.66,1.34-3.78,2.14-6.1,2.14Z"/>
    <path class="st26" d="M32.94,44.56c1.69,0,3.28-.44,4.64-1.21l1.29-.87.05-.05.32-.03c.89.48,1.9.75,2.98.75,2.26,0,4.24-1.18,5.34-2.94l.41-.79.03-.07.35-.13.09.05.88.27c.31.06.62.09.95.09,1.21,0,2.32-.45,3.16-1.19l.73-.83.16-.28.1-.1.75-.4.69-.56.57-.68.09-.16.34-.1.08.04.41.12c.14.03.29.04.45.04,1.23,0,2.22-.98,2.22-2.17s-.99-2.17-2.22-2.17l-.45.04-.21.06-.29-.12-.41-.74-.74-.83c-.83-.74-1.94-1.2-3.16-1.2-.24,0-.48.02-.72.05l-.68.15-.26.09-.3-.1-.04-.06-.43-.55c-1.09-1.23-2.7-2.01-4.49-2.01-.2,0-.4,0-.61.03l-.32.05-.26-.14-.23-.46-.55-.85c-1.42-1.91-3.73-3.15-6.33-3.15-2.36,0-4.48,1.03-5.92,2.65l-.57.73-.21.34-.33.09-.25-.13-.88-.27c-.3-.06-.62-.1-.95-.1-1.99,0-3.69,1.21-4.37,2.91l-.23.76-.06.42-.31.21-.09-.02-1.05-.1c-2.9,0-5.24,2.3-5.24,5.12s2.34,5.12,5.24,5.12l.99-.09.95-.27.31.15c1.41,3.28,4.73,5.58,8.6,5.58ZM32.94,45.06c-3.56,0-6.69-1.86-8.42-4.64l-.55-1.06-.77.22h-.02c-.35.07-.71.11-1.08.11-3.16,0-5.74-2.52-5.74-5.63s2.58-5.62,5.74-5.62l1,.1.03-.18c.49-2.34,2.59-4.08,5.1-4.08.71,0,1.4.14,2.02.4h.02s.06.04.06.04l.1-.15c1.5-2.18,4.04-3.61,6.91-3.61,3.16,0,5.91,1.73,7.32,4.27l.15.31.16-.02c.22-.02.44-.04.66-.04,1.94,0,3.68.85,4.87,2.18l.4.52.1-.03c.49-.15,1.01-.23,1.55-.23,1.79,0,3.37.89,4.31,2.25v.02s.33.58.33.58h.06c.18-.06.36-.07.55-.07,1.5,0,2.72,1.19,2.72,2.67s-1.22,2.68-2.72,2.68c-.19,0-.37-.02-.55-.05l-.4-.12-.64.75c-.23.23-.49.44-.77.62h-.02s-.7.38-.7.38l-.13.23v.02c-.95,1.35-2.53,2.24-4.32,2.24-.36,0-.71-.03-1.05-.1l-.86-.26-.37.71c-1.18,1.91-3.33,3.18-5.77,3.18-.87,0-1.71-.16-2.47-.46l-.62-.29-1.3.88c-1.44.81-3.11,1.28-4.89,1.28Z"/>
    <path class="st7" d="M22,28.44l1,.1.03-.18c.49-2.34,2.59-4.08,5.1-4.08.72,0,1.4.14,2.02.4h.02s.06.04.06.04l.1-.15c1.5-2.18,4.04-3.61,6.91-3.61,3.16,0,5.91,1.73,7.32,4.27l.15.31.16-.02c.22-.02.44-.04.66-.04,1.94,0,3.68.85,4.87,2.18l.4.52.1-.03c.49-.15,1.01-.23,1.55-.23,1.79,0,3.37.89,4.31,2.25v.02s.34.58.34.58h.06c.18-.06.36-.07.55-.07,1.5,5.44-38.87,5.21-35.7-2.25Z"/>
  </g>
  <g id="Capa_6" class="st38">
    <path class="st11" d="M24.37,30.12c-3.47,0-6.45-2.07-7.73-5.01h0s-.85.23-.85.23c-.29.06-.6.08-.91.08-2.65,0-4.8-2.11-4.8-4.7s2.15-4.7,4.8-4.7c.33,0,.66.03.97.09l.09.02.06-.38c.4-1.93,2.15-3.38,4.24-3.38.6,0,1.17.12,1.68.33l.24.12.19-.3c1.27-1.84,3.42-3.05,5.86-3.05,2.68,0,5.01,1.46,6.21,3.62l.2.41.29-.04c.18-.02.37-.03.55-.03,1.86,0,3.51.93,4.48,2.34l.04.06.24-.08c.41-.12.84-.19,1.29-.19,1.49,0,2.81.74,3.59,1.87l.37.66.21-.06c.14-.03.29-.04.44-.04,1.19,0,2.16.95,2.16,2.12s-.97,2.12-2.16,2.12c-.3,0-.58-.06-.84-.17l-.08-.04-.08.15c-.31.45-.71.84-1.17,1.15l-.67.35-.14.26c-.78,1.13-2.1,1.87-3.59,1.87-.6,0-1.17-.12-1.68-.33l-.09-.05-.03.07c-.86,2-2.88,3.4-5.23,3.4-.98,0-1.9-.24-2.71-.67l-.03-.02-.05.05c-1.45,1.17-3.31,1.87-5.33,1.87Z"/>
    <path class="st14" d="M24.37,29.9c1.48,0,2.87-.39,4.06-1.06l1.13-.77.05-.04.28-.02c.78.42,1.66.66,2.6.66,1.98,0,3.71-1.03,4.67-2.57l.36-.69.02-.06.31-.12.07.04.77.23c.27.05.54.08.83.08,1.06,0,2.03-.4,2.76-1.04l.64-.73.14-.25.09-.09.66-.35.6-.49.5-.59.08-.14.3-.09.07.04.36.11c.13.02.26.04.39.04,1.08,0,1.94-.85,1.94-1.9s-.87-1.9-1.94-1.9l-.39.04-.19.06-.26-.1-.36-.65-.64-.73c-.73-.65-1.7-1.05-2.76-1.05-.21,0-.42.02-.62.05l-.6.14-.23.08-.26-.09-.04-.06-.38-.48c-.95-1.07-2.36-1.76-3.92-1.76-.18,0-.36,0-.53.03l-.28.04-.23-.12-.2-.4-.48-.74c-1.25-1.67-3.26-2.76-5.53-2.76-2.07,0-3.92.9-5.18,2.31l-.5.64-.18.29-.29.08-.22-.12-.77-.23c-.27-.05-.54-.08-.83-.08-1.74,0-3.22,1.06-3.82,2.55l-.2.66-.06.37-.27.18-.08-.02-.92-.09c-2.53,0-4.58,2.01-4.58,4.48s2.05,4.48,4.58,4.48l.86-.08.83-.24.27.13c1.24,2.87,4.14,4.88,7.52,4.88ZM24.37,30.34c-3.12,0-5.85-1.62-7.36-4.06l-.48-.92-.68.19h-.02c-.31.06-.62.09-.95.09-2.77,0-5.02-2.2-5.02-4.92s2.25-4.92,5.02-4.92l.87.09.03-.16c.43-2.04,2.26-3.57,4.46-3.57.62,0,1.22.12,1.77.35h.02s.05.04.05.04l.08-.13c1.31-1.91,3.53-3.15,6.04-3.15,2.76,0,5.17,1.51,6.4,3.73l.13.27.14-.02c.19-.02.38-.03.58-.03,1.7,0,3.22.74,4.25,1.9l.36.45.08-.03c.43-.14.88-.21,1.36-.21,1.57,0,2.95.78,3.77,1.96v.02s.29.51.29.51h.05c.16-.05.32-.06.48-.06,1.31,0,2.38,1.04,2.38,2.34s-1.07,2.34-2.38,2.34c-.16,0-.32-.02-.48-.05l-.35-.11-.56.66c-.21.2-.43.38-.67.54h-.02s-.61.34-.61.34l-.12.21v.02c-.83,1.19-2.21,1.96-3.78,1.96-.31,0-.62-.03-.91-.09l-.75-.23-.33.62c-1.04,1.67-2.91,2.78-5.04,2.78-.76,0-1.49-.14-2.16-.4l-.55-.25-1.13.77c-1.26.71-2.72,1.12-4.28,1.12Z"/>
    <path class="st31" d="M14.8,15.8l.87.09.03-.16c.43-2.04,2.26-3.57,4.46-3.57.62,0,1.22.12,1.77.35h.02s.05.04.05.04l.08-.13c1.31-1.91,3.53-3.15,6.04-3.15,2.76,0,5.17,1.51,6.4,3.73l.13.27.14-.02c.19-.02.38-.03.58-.03,1.7,0,3.22.74,4.25,1.9l.35.45.09-.03c.43-.14.88-.21,1.36-.21,1.57,0,2.95.78,3.77,1.96v.02s.29.51.29.51h.06c.16-.05.31-.06.48-.06,1.31,4.76-33.98,4.56-31.22-1.96Z"/>
    <path class="st1" d="M31.35,36.96c-2.76,0-5.18-1.44-6.52-3.6l-.42-.82-.6.17h-.02c-.27.06-.55.08-.84.08-2.45,0-4.45-1.95-4.45-4.36,0-2.26,1.75-4.11,3.99-4.34l.38-.02h0s.02,0,.02,0h.05s.69.07.69.07l.02-.14c.38-1.81,2.01-3.16,3.95-3.16h.04s.04,0,.04,0c.55,0,1.08.11,1.57.31h0s.06-.08.06-.08c1.16-1.69,3.13-2.8,5.35-2.8h.04s.04,0,.04,0c2.45,0,4.58,1.34,5.67,3.31l.11.23h.05c.17-.02.34-.03.51-.03h.04s.04,0,.04,0l2.13,11.06-.29.55c-.92,1.48-2.58,2.46-4.47,2.46-.68,0-1.32-.13-1.92-.35l-.48-.22-1,.68c-1.12.63-2.41.99-3.79.99Z"/>
    <path class="st32" d="M33.01,39.31c-3.47,0-6.45-2.07-7.72-5.01h0s-.85.23-.85.23c-.29.06-.6.08-.91.08-2.65,0-4.8-2.11-4.8-4.7s2.15-4.7,4.8-4.7c.33,0,.65.03.96.1l.09.02.06-.38c.4-1.93,2.15-3.38,4.24-3.38.6,0,1.17.12,1.69.33l.23.12.19-.3c1.27-1.84,3.42-3.05,5.86-3.05,2.68,0,5.01,1.46,6.21,3.62l.2.4.29-.04c.18-.02.37-.03.55-.03,1.87,0,3.51.93,4.48,2.34l.04.06.24-.08c.41-.12.84-.19,1.29-.19,1.49,0,2.81.74,3.59,1.87l.37.66.21-.06c.14-.03.29-.04.44-.04,1.19,0,2.16.95,2.16,2.12s-.97,2.12-2.16,2.12c-.3,0-.58-.06-.84-.17l-.09-.04-.08.15c-.31.45-.71.84-1.17,1.14l-.67.36-.14.26c-.78,1.13-2.1,1.87-3.59,1.87-.6,0-1.17-.12-1.68-.33l-.09-.04-.03.07c-.86,2-2.88,3.4-5.23,3.4-.98,0-1.9-.24-2.71-.67l-.03-.02-.06.05c-1.45,1.17-3.3,1.87-5.33,1.87Z"/>
    <path class="st23" d="M33.01,39.09c1.48,0,2.87-.39,4.06-1.06l1.13-.76.05-.04.28-.02c.77.42,1.66.66,2.6.66,1.98,0,3.71-1.03,4.67-2.57l.36-.69.02-.06.31-.12.08.04.77.23c.27.05.54.08.83.08,1.06,0,2.03-.4,2.76-1.04l.64-.73.14-.25.09-.09.66-.35.6-.49.5-.59.07-.14.3-.09.07.04.36.11c.13.02.26.04.39.04,1.08,0,1.94-.85,1.94-1.9s-.87-1.9-1.94-1.9l-.39.04-.19.06-.26-.1-.36-.65-.64-.73c-.73-.65-1.7-1.05-2.76-1.05-.21,0-.42.02-.63.05l-.6.14-.23.08-.26-.09-.04-.06-.38-.48c-.95-1.07-2.36-1.76-3.92-1.76-.18,0-.36,0-.53.02l-.28.04-.23-.12-.2-.39-.48-.75c-1.25-1.67-3.26-2.76-5.53-2.76-2.07,0-3.92.9-5.17,2.31l-.5.64-.18.29-.29.08-.22-.12-.77-.23c-.27-.05-.54-.08-.83-.08-1.74,0-3.22,1.06-3.82,2.55l-.2.66-.06.37-.27.18-.08-.02-.92-.09c-2.53,0-4.58,2.01-4.58,4.48s2.05,4.48,4.58,4.48l.86-.08.83-.24.27.13c1.24,2.86,4.14,4.88,7.52,4.88ZM33.01,39.53c-3.12,0-5.85-1.62-7.36-4.06l-.48-.92-.67.19h-.02c-.31.06-.62.09-.95.09-2.77,0-5.02-2.2-5.02-4.92s2.25-4.92,5.02-4.92l.87.09.03-.16c.43-2.04,2.26-3.57,4.46-3.57.63,0,1.22.12,1.77.35h.02s.05.04.05.04l.08-.13c1.31-1.91,3.53-3.15,6.04-3.15,2.76,0,5.17,1.51,6.4,3.73l.13.27.14-.02c.19-.02.38-.03.58-.03,1.7,0,3.22.74,4.25,1.91l.35.45.09-.03c.43-.14.88-.21,1.36-.21,1.57,0,2.95.78,3.77,1.96v.02s.29.51.29.51h.06c.15-.05.31-.06.48-.06,1.31,0,2.38,1.05,2.38,2.34s-1.07,2.34-2.38,2.34c-.17,0-.32-.02-.48-.05l-.35-.11-.56.66c-.21.2-.43.38-.67.54h-.02s-.61.34-.61.34l-.11.2v.02c-.83,1.19-2.21,1.96-3.78,1.96-.31,0-.62-.03-.91-.09l-.75-.23-.33.62c-1.04,1.67-2.91,2.78-5.04,2.78-.76,0-1.49-.14-2.16-.4l-.55-.25-1.13.77c-1.26.71-2.72,1.12-4.28,1.12Z"/>
    <path class="st7" d="M23.44,24.99l.87.09.03-.16c.43-2.04,2.26-3.57,4.46-3.57.63,0,1.22.12,1.77.35h.02s.05.04.05.04l.08-.13c1.31-1.91,3.53-3.15,6.04-3.15,2.76,0,5.17,1.51,6.4,3.73l.13.27.14-.02c.19-.02.38-.03.58-.03,1.7,0,3.22.74,4.26,1.91l.35.45.09-.03c.43-.14.88-.21,1.35-.21,1.57,0,2.95.78,3.77,1.96v.02s.29.51.29.51h.06c.15-.05.31-.06.48-.06,1.31,4.76-33.98,4.56-31.22-1.96Z"/>
    <polygon class="st12" points="30.28 17.6 25.57 28.93 29.23 29.28 25.75 35.73 29.06 35.56 23.83 46.02 35.51 35.73 31.68 35.38 35.69 29.28 33.42 29.28 41.79 17.95 30.98 17.6 30.28 17.6"/>
    <path class="st10" d="M24.75,44.82l10.06-8.86-3.16-.29-.22-.45,3.71-5.65h-1.73l-.24-.46,8.04-10.89-10.25-.33h-.5l-4.48,10.79,3.27.31.23.43-3.24,6,2.8-.15.28.42-4.57,9.13ZM24.02,46.24l-.45-.35,5.01-10.02-2.81.15-.27-.43,3.28-6.07-3.22-.31-.24-.4,4.71-11.34.27-.18h.7l10.82.35.22.46-8.03,10.87h1.69l.24.45-3.74,5.7,3.35.31.17.51-11.69,10.29Z"/>
    <path class="st30" d="M30.28,17.6l-3.02,7.27c3.2.64,6.4.54,9.6-.25l4.93-6.67-10.81-.35h-.7Z"/>
  </g>
  <g id="Capa_7">
    <path class="st36" d="M24.84,31.88c-3.5,0-6.5-2.08-7.78-5.05h0s-.85.23-.85.23c-.29.06-.6.08-.91.08-2.67,0-4.83-2.12-4.83-4.73s2.16-4.73,4.83-4.73c.33,0,.66.03.97.1l.09.02.06-.38c.41-1.94,2.16-3.41,4.27-3.41.6,0,1.17.12,1.7.34l.24.12.19-.31c1.28-1.85,3.44-3.07,5.9-3.07,2.7,0,5.05,1.47,6.25,3.64l.2.41.3-.05c.18-.02.37-.03.56-.03,1.88,0,3.54.93,4.52,2.35l.04.06.24-.08c.41-.12.85-.19,1.3-.19,1.5,0,2.83.75,3.61,1.88l.37.67.21-.06c.14-.03.29-.04.44-.04,1.2,0,2.18.95,2.18,2.13s-.98,2.13-2.18,2.13c-.3,0-.59-.06-.85-.17l-.09-.05-.08.15c-.31.45-.71.85-1.18,1.15l-.67.36-.15.26c-.78,1.14-2.11,1.88-3.61,1.88-.6,0-1.18-.12-1.7-.34l-.09-.05-.03.07c-.87,2.01-2.9,3.42-5.27,3.42-.99,0-1.92-.25-2.73-.68l-.03-.02-.06.05c-1.46,1.18-3.33,1.89-5.37,1.89Z"/>
    <path class="st28" d="M24.84,31.66c1.49,0,2.89-.39,4.09-1.07l1.13-.77.05-.04.28-.02c.78.43,1.67.66,2.62.66,1.99,0,3.74-1.04,4.7-2.59l.36-.69.02-.06.31-.12.08.04.77.23c.27.05.55.08.84.08,1.07,0,2.04-.4,2.78-1.05l.65-.73.14-.25.09-.09.66-.35.61-.49.5-.6.08-.14.3-.09.07.04.36.11c.13.02.26.04.4.04,1.08,0,1.96-.86,1.96-1.91s-.87-1.91-1.96-1.91l-.39.04-.19.06-.26-.1-.36-.65-.65-.73c-.73-.65-1.71-1.05-2.78-1.05-.22,0-.43.02-.63.05l-.6.14-.23.08-.26-.09-.04-.06-.38-.49c-.96-1.08-2.37-1.77-3.95-1.77-.18,0-.36,0-.54.03l-.29.04-.23-.12-.2-.4-.49-.75c-1.25-1.68-3.28-2.78-5.57-2.78-2.08,0-3.95.91-5.21,2.33l-.5.64-.18.3-.29.08-.22-.12-.77-.24c-.27-.05-.55-.08-.83-.08-1.75,0-3.25,1.07-3.85,2.57l-.2.66-.06.37-.27.18-.08-.02-.93-.09c-2.55,0-4.61,2.02-4.61,4.51s2.06,4.51,4.61,4.51l.87-.08.84-.24.27.13c1.25,2.89,4.17,4.92,7.58,4.92ZM24.84,32.1c-3.14,0-5.89-1.64-7.41-4.09l-.48-.93-.68.19h-.02c-.31.06-.63.09-.96.09-2.79,0-5.05-2.21-5.05-4.95s2.27-4.95,5.05-4.95l.88.09.03-.16c.43-2.06,2.28-3.59,4.49-3.59.63,0,1.23.12,1.78.35h.02s.05.04.05.04l.08-.13c1.32-1.92,3.55-3.18,6.08-3.18,2.78,0,5.2,1.52,6.45,3.76l.13.27.14-.02c.19-.02.39-.03.58-.03,1.71,0,3.24.74,4.28,1.92l.36.46.09-.03c.43-.14.89-.21,1.36-.21,1.58,0,2.97.78,3.8,1.98v.02s.3.51.3.51h.06c.16-.05.32-.06.48-.06,1.32,0,2.4,1.05,2.4,2.36s-1.08,2.36-2.4,2.36c-.17,0-.33-.01-.48-.05l-.35-.11-.56.66c-.21.2-.43.39-.68.55h-.02s-.61.34-.61.34l-.12.21v.02c-.84,1.19-2.23,1.98-3.81,1.98-.32,0-.62-.03-.92-.09l-.76-.23-.33.63c-1.04,1.68-2.93,2.8-5.08,2.8-.77,0-1.5-.14-2.18-.4l-.55-.25-1.14.77c-1.27.72-2.74,1.12-4.31,1.12Z"/>
    <path class="st31" d="M15.2,17.46l.88.09.03-.16c.43-2.06,2.28-3.59,4.49-3.59.63,0,1.23.12,1.78.35h.02s.05.04.05.04l.09-.13c1.32-1.92,3.55-3.18,6.08-3.18,2.78,0,5.2,1.52,6.45,3.76l.13.27.14-.02c.19-.02.39-.03.58-.03,1.71,0,3.25.74,4.29,1.92l.36.46.09-.03c.43-.14.89-.21,1.36-.21,1.58,0,2.97.78,3.8,1.98v.02s.29.51.29.51h.06c.16-.05.32-.06.48-.06,1.32,4.79-34.23,4.59-31.44-1.98Z"/>
    <path class="st16" d="M31.87,38.77c-2.78,0-5.22-1.45-6.57-3.62l-.43-.82-.6.17h-.02c-.27.06-.56.08-.85.08-2.47,0-4.48-1.96-4.48-4.39,0-2.27,1.77-4.14,4.02-4.37l.38-.02h0s.03,0,.03,0h.05s.7.07.7.07l.02-.14c.38-1.82,2.02-3.18,3.98-3.18h.04s.04,0,.04,0c.56,0,1.09.11,1.58.31h0s.06-.08.06-.08c1.17-1.7,3.15-2.81,5.39-2.81h.04s.04,0,.04,0c2.46,0,4.61,1.35,5.71,3.33l.11.23h.05c.17-.03.34-.04.52-.04h.04s.04,0,.04,0l2.14,11.14-.29.56c-.93,1.49-2.6,2.48-4.5,2.48-.68,0-1.33-.13-1.93-.36l-.49-.22-1.01.69c-1.12.64-2.43,1-3.82,1Z"/>
    <path class="st6" d="M33.55,41.14c-3.5,0-6.5-2.08-7.78-5.05h0s-.85.23-.85.23c-.29.06-.6.09-.91.09-2.67,0-4.83-2.12-4.83-4.73s2.16-4.73,4.83-4.73c.33,0,.66.03.97.1l.09.02.06-.38c.41-1.94,2.16-3.41,4.27-3.41.6,0,1.17.12,1.7.33l.24.12.19-.31c1.28-1.85,3.45-3.07,5.9-3.07,2.7,0,5.05,1.47,6.25,3.65l.2.41.3-.04c.18-.02.37-.03.56-.03,1.88,0,3.54.93,4.52,2.35l.04.07.24-.08c.41-.13.85-.19,1.3-.19,1.5,0,2.83.75,3.61,1.88l.37.67.21-.06c.14-.03.29-.04.44-.04,1.2,0,2.18.96,2.18,2.13s-.98,2.13-2.18,2.13c-.3,0-.59-.06-.85-.17l-.09-.04-.08.15c-.31.45-.71.85-1.18,1.15l-.67.36-.15.26c-.78,1.14-2.11,1.88-3.61,1.88-.6,0-1.18-.12-1.7-.33l-.09-.05-.03.07c-.87,2.01-2.9,3.42-5.27,3.42-.99,0-1.92-.24-2.73-.67l-.03-.02-.06.05c-1.46,1.18-3.33,1.89-5.37,1.89Z"/>
    <path class="st0" d="M33.55,40.92c1.49,0,2.89-.39,4.09-1.07l1.14-.77.05-.04.28-.02c.78.43,1.67.66,2.62.66,1.99,0,3.74-1.04,4.7-2.59l.36-.69.02-.06.31-.12.08.04.77.23c.27.05.55.08.84.08,1.07,0,2.05-.4,2.78-1.05l.65-.73.14-.25.09-.09.66-.35.61-.49.5-.6.08-.14.3-.09.07.04.36.11c.13.02.26.04.4.04,1.09,0,1.96-.86,1.96-1.91s-.87-1.91-1.96-1.91l-.39.04-.19.06-.26-.1-.36-.65-.65-.73c-.73-.65-1.71-1.05-2.78-1.05-.22,0-.43.01-.63.05l-.6.14-.23.08-.26-.09-.04-.06-.38-.49c-.96-1.08-2.37-1.77-3.95-1.77-.18,0-.36,0-.54.03l-.28.04-.23-.12-.2-.4-.49-.75c-1.25-1.68-3.28-2.78-5.57-2.78-2.08,0-3.95.9-5.21,2.33l-.5.64-.18.3-.29.08-.22-.12-.77-.23c-.27-.06-.55-.08-.83-.08-1.75,0-3.25,1.07-3.85,2.56l-.2.67-.06.37-.27.18-.08-.02-.93-.09c-2.55,0-4.61,2.03-4.61,4.51s2.06,4.51,4.61,4.51l.87-.08.84-.24.27.13c1.25,2.89,4.17,4.92,7.58,4.92ZM33.55,41.36c-3.14,0-5.89-1.64-7.41-4.09l-.48-.93-.68.19h-.02c-.31.06-.63.09-.96.09-2.79,0-5.06-2.21-5.06-4.96s2.27-4.95,5.06-4.95l.88.09.03-.16c.43-2.06,2.28-3.59,4.49-3.59.63,0,1.23.12,1.78.35h.02s.05.04.05.04l.08-.13c1.32-1.92,3.55-3.17,6.08-3.17,2.78,0,5.21,1.52,6.45,3.76l.13.27.14-.02c.19-.02.39-.03.58-.03,1.71,0,3.24.75,4.28,1.92l.36.45.09-.03c.43-.14.89-.21,1.36-.21,1.58,0,2.97.78,3.8,1.98v.02s.29.51.29.51h.06c.16-.05.32-.07.48-.07,1.32,0,2.4,1.05,2.4,2.35s-1.08,2.36-2.4,2.36c-.16,0-.33-.02-.48-.05l-.35-.11-.56.66c-.21.2-.43.39-.68.55h-.02s-.61.34-.61.34l-.12.21v.02c-.83,1.19-2.23,1.98-3.81,1.98-.32,0-.62-.03-.92-.09l-.76-.23-.33.63c-1.05,1.68-2.93,2.8-5.08,2.8-.77,0-1.5-.14-2.18-.4l-.55-.25-1.14.78c-1.27.71-2.74,1.12-4.31,1.12Z"/>
    <path class="st13" d="M23.91,26.72l.88.09.03-.16c.43-2.06,2.28-3.59,4.49-3.59.63,0,1.23.12,1.78.35h.02s.05.04.05.04l.08-.13c1.32-1.92,3.55-3.17,6.08-3.17,2.78,0,5.2,1.52,6.45,3.76l.13.27.14-.02c.19-.02.38-.03.58-.03,1.71,0,3.24.75,4.28,1.92l.36.45.08-.03c.44-.14.89-.21,1.37-.21,1.58,0,2.97.78,3.79,1.98v.02s.3.51.3.51h.06c.16-.05.32-.07.48-.07,1.32,4.79-34.23,4.59-31.44-1.98Z"/>
    <path class="st15" d="M13.43,32.57v-.22s-.19-.08-.19-.08l.2-.09-.03-.21.18.12.17-.13-.02.21.2.08-.2.09.03.21-.18-.12-.17.14ZM13.54,33.56c.17,0,.33-.04.48-.1h0s-.45-.8-.45-.8l.03-.02.4.27-.02-.15.3.53.12-.1c.17-.17.29-.38.34-.62l.02-.2-.83.06.43-.21-.27-.11.65-.05-.07-.22c-.06-.15-.15-.28-.26-.39l-.11-.1-.37.63.03-.42-.25.2.34-.57h-.02c-.15-.07-.31-.11-.48-.11-.08,0-.16,0-.23.02l-.21.06.34.59-.25-.17.07.47-.42-.74-.12.09c-.22.2-.36.48-.4.79v.05s.68-.05.68-.05l-.18.09.45.18v.02s-.94.08-.94.08v.02c.06.28.21.53.43.7l.04.03.47-.8-.03.44.23-.19-.41.7.06.03c.13.05.27.08.42.08ZM15.24,36.27l-.28-.12.25-.61-.23-.4-.28.67-.28-.12.37-.89-.24-.42-.45,1.08-.28-.12.54-1.3-.16-.28-.05.03c-.19.08-.4.12-.62.12-.19,0-.38-.04-.55-.1l-.12-.06-.16.27.57,1.28-.28.12-.48-1.08-.22.37.43.96-.28.12-.34-.77-.28.48.25.56-.28.12-.16-.36-.19.32-.26-.16.2-.34-.42.05-.04-.3.66-.08.24-.4-.72.09-.04-.3.96-.12.24-.41-1.16.15-.04-.3,1.4-.18.15-.26-.09-.06c-.28-.23-.48-.55-.55-.91v-.06s-.32.03-.32.03l-.72,1.2-.26-.16.61-1.01-.43.03-.54.9-.26-.16.43-.71-.55.04-.31.52-.26-.16.2-.34-.37.03-.03-.3.39-.03-.29-.32.23-.2.44.49.46-.04-.49-.54.22-.2.65.71.48-.04-.79-.87.22-.21.95,1.04.3-.03v-.12c.05-.41.24-.77.52-1.02l.18-.14-.17-.29-1.39-.15.03-.3,1.18.12-.21-.37-1.05-.11.03-.3.83.09-.27-.48-.61-.06.03-.3.39.04-.18-.32.26-.15.19.34.17-.39.28.12-.25.61.23.4.28-.67.28.12-.37.89.24.42.45-1.08.28.12-.54,1.3.16.29.04-.02c.18-.07.38-.11.59-.11.22,0,.43.05.62.13l.06.03.18-.31-.57-1.28.28-.12.48,1.08.22-.37-.43-.96.28-.12.34.77.28-.48-.25-.56.28-.12.16.36.19-.32.26.15-.2.34.42-.05.04.3-.66.08-.24.4.72-.09.04.3-.96.12-.24.41,1.16-.15.04.3-1.4.18-.18.3.19.15c.22.22.37.5.44.81v.04s.36-.03.36-.03l.72-1.2.26.16-.61,1.02.43-.04.54-.9.26.16-.43.71.55-.04.32-.52.26.16-.2.34.37-.03.02.3-.39.03.29.31-.22.2-.44-.49-.46.04.49.54-.22.2-.65-.71-.48.04.79.87-.22.2-.95-1.04-.34.03-.03.31c-.06.31-.22.59-.44.81l-.2.17.16.29,1.39.15-.03.3-1.18-.12.21.37,1.05.11-.03.3-.83-.09.27.48.61.06-.03.3-.39-.04.19.32-.26.15-.2-.34-.16.39Z"/>
    <path class="st15" d="M22.85,39.85v-.12s-.1-.04-.1-.04l.11-.05-.02-.12.1.07.09-.07v.12s.1.04.1.04l-.11.05.02.11-.1-.07-.09.07ZM22.91,40.39c.09,0,.18-.02.26-.05h0s-.24-.43-.24-.43h.01s.21.13.21.13v-.08s.15.29.15.29l.07-.06c.09-.09.16-.21.18-.34v-.11s-.44.04-.44.04l.23-.11-.15-.06.35-.03-.04-.12c-.03-.08-.08-.15-.14-.21l-.06-.05-.2.34.02-.23-.14.11.18-.31h-.01c-.08-.04-.17-.06-.26-.06-.04,0-.09,0-.13.01l-.12.03.18.32-.13-.09.04.25-.23-.4-.06.05c-.12.11-.2.26-.22.43v.03s.37-.03.37-.03l-.1.05.24.1h0s-.51.05-.51.05h0c.03.16.11.3.23.39h.02s.25-.42.25-.42l-.02.24.13-.1-.22.38.03.02c.07.03.15.04.23.04ZM23.83,41.86l-.15-.06.14-.33-.12-.22-.15.37-.15-.06.2-.48-.13-.23-.25.59-.15-.06.3-.71-.09-.15h-.03c-.1.06-.22.08-.34.08-.1,0-.2-.02-.3-.05l-.07-.03-.09.15.31.7-.15.07-.26-.59-.12.2.23.52-.15.07-.18-.41-.15.26.13.3-.15.07-.09-.2-.1.17-.14-.08.11-.18-.23.03-.02-.16.36-.05.13-.22-.39.05-.02-.16.52-.07.13-.22-.63.08-.02-.16.76-.1.08-.14-.05-.03c-.15-.12-.26-.3-.3-.5v-.03s-.18.01-.18.01l-.39.65-.14-.09.33-.55-.23.02-.29.49-.14-.09.23-.39-.3.02-.17.28-.14-.08.11-.18-.2.02v-.16s.2-.02.2-.02l-.16-.17.12-.11.24.26.25-.02-.27-.29.12-.11.35.39.26-.02-.43-.47.12-.11.51.56h.17s0-.08,0-.08c.02-.22.13-.42.28-.55l.1-.08-.09-.16-.76-.08.02-.16.64.07-.12-.2-.57-.06.02-.16.45.05-.15-.26-.33-.03.02-.16.21.02-.1-.18.14-.08.1.19.09-.21.15.06-.14.33.12.22.15-.37.15.06-.2.48.13.23.25-.59.15.06-.29.71.09.16h.02c.1-.05.21-.07.32-.07.12,0,.24.02.34.07l.04.02.1-.17-.31-.7.15-.07.26.59.12-.2-.23-.52.15-.07.18.41.15-.26-.13-.3.15-.07.09.2.1-.18.14.08-.11.18.23-.03.02.16-.36.05-.13.22.39-.05.02.16-.52.07-.13.22.63-.08.02.16-.76.1-.1.16.1.08c.12.12.2.27.24.44v.02s.19-.02.19-.02l.39-.65.14.08-.33.55.23-.02.3-.49.14.08-.24.39.3-.02.17-.28.14.08-.11.18.2-.02v.17s-.2.02-.2.02l.16.17-.12.11-.24-.26-.25.02.27.29-.12.11-.35-.39-.26.02.43.47-.12.11-.51-.56h-.18s-.02.18-.02.18c-.04.17-.12.32-.24.44l-.11.09.09.16.76.08-.02.16-.64-.07.12.2.57.06-.02.16-.45-.05.15.26.33.04-.02.16-.21-.02.1.18-.14.08-.11-.19-.09.21Z"/>
    <path class="st15" d="M39.46,42.62v-.12s-.1-.04-.1-.04l.11-.05-.02-.12.1.07.09-.07v.12s.1.04.1.04l-.11.05.02.12-.1-.07-.09.07ZM39.52,43.15c.09,0,.18-.02.26-.05h0s-.24-.43-.24-.43h.01s.22.14.22.14v-.08s.15.29.15.29l.07-.06c.09-.09.16-.21.18-.34v-.11s-.44.04-.44.04l.23-.11-.15-.06.35-.03-.04-.12c-.04-.08-.08-.15-.15-.21l-.06-.05-.2.34.02-.22-.14.11.18-.31h-.01c-.08-.04-.17-.06-.26-.06-.04,0-.09,0-.12.01l-.12.03.18.32-.13-.09.04.25-.23-.4-.07.05c-.12.11-.2.26-.22.43v.03l.37-.03-.1.05.24.1h0s-.51.05-.51.05h0c.03.16.12.3.23.39h.02s.25-.42.25-.42l-.02.24.13-.1-.22.38.03.02c.07.03.15.04.23.04ZM40.44,44.62l-.15-.06.14-.33-.12-.22-.15.37-.15-.06.2-.48-.13-.23-.25.59-.15-.06.3-.71-.09-.15h-.02c-.11.06-.22.08-.34.08-.11,0-.21-.02-.3-.05l-.07-.03-.09.15.31.7-.15.07-.26-.59-.12.2.23.52-.15.07-.18-.42-.16.26.14.3-.15.07-.09-.2-.1.17-.14-.08.11-.18-.23.03-.02-.16.35-.04.13-.22-.39.05-.02-.16.52-.07.13-.22-.63.08-.02-.16.76-.1.08-.14-.05-.03c-.15-.12-.26-.3-.3-.5v-.03s-.17.01-.17.01l-.39.65-.14-.09.33-.55-.23.02-.3.49-.14-.08.23-.39-.3.02-.17.28-.14-.08.11-.18-.2.02v-.16s.2-.02.2-.02l-.16-.17.12-.11.24.26.25-.02-.27-.29.12-.11.35.39.26-.02-.43-.47.12-.11.51.56h.17s0-.08,0-.08c.02-.22.13-.41.28-.56l.1-.07-.09-.16-.76-.08.02-.16.64.07-.11-.2-.57-.06.02-.16.45.05-.15-.26-.33-.04.02-.16.21.02-.1-.18.14-.08.1.19.09-.21.15.06-.14.33.12.22.15-.37.15.06-.2.48.12.23.25-.59.15.06-.29.7.09.16h.02c.1-.05.21-.07.32-.07.12,0,.23.02.34.07l.03.02.1-.17-.31-.7.15-.07.26.59.12-.2-.23-.52.15-.07.18.41.15-.26-.13-.3.15-.07.09.19.1-.17.14.08-.11.18.23-.03.02.16-.36.04-.13.22.39-.05.02.16-.52.07-.13.22.63-.08.02.16-.76.1-.1.16.1.08c.12.12.2.27.24.44v.02s.19-.02.19-.02l.39-.65.14.08-.33.55.23-.02.29-.49.14.08-.23.39.3-.02.17-.28.14.08-.11.18.2-.02v.16s-.2.02-.2.02l.16.17-.12.11-.24-.26-.25.02.27.29-.12.11-.35-.39-.26.02.43.47-.12.11-.51-.56h-.18s-.02.18-.02.18c-.04.17-.12.32-.24.44l-.11.09.09.16.76.08-.02.16-.64-.07.12.2.57.06-.02.16-.45-.05.15.26.33.03-.02.16-.21-.02.1.18-.14.08-.11-.19-.09.21Z"/>
    <path class="st15" d="M47.27,40.6v-.12s-.1-.04-.1-.04l.11-.05-.02-.12.1.07.09-.07v.12s.1.04.1.04l-.11.05.02.12-.1-.07-.09.07ZM47.33,41.14c.09,0,.18-.02.26-.05h0s-.24-.43-.24-.43h.01s.22.13.22.13v-.08s.15.29.15.29l.07-.06c.09-.09.16-.21.18-.34v-.11s-.44.04-.44.04l.23-.11-.15-.06.35-.03-.04-.12c-.03-.08-.08-.15-.14-.21l-.06-.05-.2.34.02-.23-.14.11.18-.31h-.01c-.08-.04-.17-.06-.26-.06-.04,0-.09,0-.13.01l-.12.03.18.32-.13-.09.04.25-.23-.4-.06.05c-.12.11-.2.26-.22.43v.03s.37-.03.37-.03l-.1.05.24.1h0s-.51.05-.51.05h0c.03.16.11.29.23.39h.02s.25-.42.25-.42l-.02.24.13-.1-.22.38.03.02c.07.03.15.04.23.04ZM48.25,42.61l-.15-.06.14-.33-.12-.22-.15.37-.15-.07.2-.48-.13-.23-.25.59-.15-.06.3-.7-.09-.15-.03.02c-.1.04-.22.07-.34.07-.11,0-.21-.02-.3-.05l-.07-.03-.09.15.31.7-.15.07-.26-.59-.12.2.23.52-.15.07-.19-.42-.15.26.14.3-.15.07-.09-.2-.1.17-.14-.08.11-.18-.23.03-.02-.16.36-.05.13-.22-.39.05-.02-.16.52-.07.13-.22-.63.08-.02-.16.76-.1.08-.14-.05-.03c-.15-.12-.26-.3-.3-.5v-.03s-.18.01-.18.01l-.39.65-.14-.08.33-.55-.23.02-.3.49-.14-.08.24-.39-.3.02-.17.28-.14-.08.11-.18-.2.02v-.16s.2-.02.2-.02l-.15-.17.12-.11.24.27.25-.02-.27-.29.12-.11.35.39.26-.02-.43-.47.12-.11.51.56h.17s0-.08,0-.08c.02-.22.13-.42.28-.56l.1-.08-.09-.16-.76-.08.02-.16.64.07-.11-.2-.57-.06.02-.16.45.05-.15-.26-.33-.03.02-.16.21.02-.1-.18.14-.08.1.19.09-.21.15.06-.14.33.12.22.15-.37.15.06-.2.48.13.23.25-.59.15.06-.29.7.09.16h.02c.1-.05.21-.07.32-.07.12,0,.23.02.34.07l.03.02.1-.17-.31-.69.15-.07.26.59.12-.2-.23-.52.15-.07.18.41.15-.26-.13-.3.15-.07.09.2.1-.17.14.08-.11.18.23-.03.02.16-.36.04-.13.22.39-.05.02.16-.52.07-.13.22.63-.08.02.16-.76.1-.1.16.1.08c.12.12.2.27.24.44v.02s.19-.01.19-.01l.39-.65.14.08-.33.55.23-.02.29-.49.14.08-.23.39.3-.02.17-.29.14.08-.11.18.2-.02v.16s-.2.02-.2.02l.16.17-.12.11-.24-.26-.25.02.27.29-.12.11-.35-.39-.26.02.43.47-.12.11-.51-.56-.18.02-.02.17c-.03.17-.12.32-.24.44l-.11.09.09.16.76.08-.02.16-.64-.07.11.2.57.06-.02.16-.45-.05.15.26.33.03-.02.16-.21-.02.1.18-.14.08-.11-.19-.09.21Z"/>
  </g>
</svg>